<?xml version="1.0" encoding="utf-8"?>
<!-- Generator: Adobe Illustrator 27.5.0, SVG Export Plug-In . SVG Version: 6.00 Build 0)  -->
<svg version="1.1" xmlns="http://www.w3.org/2000/svg" xmlns:xlink="http://www.w3.org/1999/xlink" x="0px" y="0px"
	 viewBox="0 0 500 500" style="enable-background:new 0 0 500 500;" xml:space="preserve">
<g id="BACKGROUND">
	<rect style="fill:#F3F8FF;" width="500" height="500"/>
	<g>
		<defs>
			<rect id="SVGID_1_" width="500" height="500"/>
		</defs>
		<clipPath id="SVGID_00000178198633350936259280000004725890035667809687_">
			<use xlink:href="#SVGID_1_"  style="overflow:visible;"/>
		</clipPath>
		<g style="clip-path:url(#SVGID_00000178198633350936259280000004725890035667809687_);">
			<g>
				<polygon style="fill:#D9EAFF;" points="210.668,277.943 190.602,277.943 190.602,251.061 163.292,251.061 163.292,113.816 
					124.385,113.816 124.385,277.943 70.852,277.943 70.852,258.398 70.852,251.083 70.852,243.768 18.515,243.768 18.515,251.083 
					18.515,258.398 18.515,266.629 -4.8,266.629 -4.8,277.943 -31.506,277.943 -31.506,245.754 -67.975,245.754 -67.975,277.943 
					-78.512,277.943 -78.512,138.627 -120.827,138.627 -120.827,245.988 -138.556,245.988 -138.556,277.943 -173.534,277.943 
					-173.534,173.111 -173.534,165.796 -173.534,158.481 -225.871,158.481 -225.871,165.796 -225.871,173.111 -225.871,260.861 
					-238.968,260.861 -238.968,247.397 -264.512,247.397 -264.512,277.943 -281.309,277.943 -281.309,419.575 210.668,419.575 				
					"/>
			</g>
			<g>
				<polygon style="fill:#D9EAFF;" points="639.961,277.943 619.895,277.943 619.895,251.061 592.585,251.061 592.585,113.816 
					553.677,113.816 553.677,277.943 500.144,277.943 500.144,258.398 500.144,251.083 500.144,243.768 447.808,243.768 
					447.808,251.083 447.808,258.398 447.808,266.629 424.492,266.629 424.492,277.943 397.787,277.943 397.787,245.754 
					361.318,245.754 361.318,277.943 350.78,277.943 350.78,183.487 308.466,183.487 308.466,245.988 290.736,245.988 
					290.736,277.943 255.758,277.943 255.758,173.111 255.758,165.796 255.758,158.481 203.422,158.481 203.422,165.796 
					203.422,173.111 203.422,260.861 191.325,260.861 191.325,247.397 150.994,247.397 150.994,277.943 147.984,277.943 
					147.984,419.575 639.961,419.575 				"/>
			</g>
		</g>
		<g style="clip-path:url(#SVGID_00000178198633350936259280000004725890035667809687_);">
			<g>
				<path style="fill:#F3F8FF;" d="M206.482,373.733c0,35.106-28.459,58.154-63.565,58.154c-35.106,0-63.565-23.047-63.565-58.154
					c0-35.106,28.459-63.565,63.565-63.565C178.023,310.168,206.482,338.627,206.482,373.733z"/>
				<path style="fill:#F3F8FF;" d="M92.65,380.172c0,36.753-29.794,59.227-66.548,59.227c-36.753,0-66.547-22.474-66.547-59.227
					c0-36.753,29.794-66.547,66.547-66.547C62.855,313.625,92.65,343.419,92.65,380.172z"/>
				<path style="fill:#F3F8FF;" d="M282.757,392.157c0,27.171-22.026,43.785-49.197,43.785s-49.197-16.615-49.197-43.785
					c0-27.171,22.026-49.197,49.197-49.197S282.757,364.987,282.757,392.157z"/>
			</g>
			<g>
				<path style="fill:#F3F8FF;" d="M375.058,377.287c0,33.143-26.868,54.6-60.012,54.6c-33.143,0-60.011-21.456-60.011-54.6
					c0-33.143,26.868-60.012,60.011-60.012C348.19,317.276,375.058,344.144,375.058,377.287z"/>
				<path style="fill:#F3F8FF;" d="M532.565,373.733c0,35.106-28.459,58.154-63.566,58.154s-63.565-23.047-63.565-58.154
					c0-35.106,28.459-63.565,63.565-63.565S532.565,338.627,532.565,373.733z"/>
				<path style="fill:#F3F8FF;" d="M444.677,392.157c0,27.171-22.026,43.785-49.197,43.785s-49.197-16.615-49.197-43.785
					c0-27.171,22.026-49.197,49.197-49.197S444.677,364.987,444.677,392.157z"/>
				<path style="fill:#F3F8FF;" d="M608.84,392.157c0,27.171-22.026,43.785-49.197,43.785c-27.171,0-49.197-16.615-49.197-43.785
					c0-27.171,22.026-49.197,49.197-49.197C586.814,342.96,608.84,364.987,608.84,392.157z"/>
			</g>
			<g>
				<path style="fill:#F3F8FF;" d="M709.857,375.934c0,33.143-26.868,54.6-60.012,54.6c-33.143,0-60.011-21.456-60.011-54.6
					c0-33.143,26.868-60.012,60.011-60.012C682.989,315.923,709.857,342.791,709.857,375.934z"/>
				<path style="fill:#F3F8FF;" d="M779.476,390.804c0,27.171-22.026,43.785-49.197,43.785c-27.171,0-49.197-16.615-49.197-43.785
					c0-27.171,22.026-49.197,49.197-49.197C757.449,341.607,779.476,363.634,779.476,390.804z"/>
			</g>
		</g>
	</g>
	<g>
		<defs>
			<rect id="SVGID_00000129885892953025904050000002574801316204328845_" width="500" height="500"/>
		</defs>
		<clipPath id="SVGID_00000153692590736245679100000017526580416197472151_">
			<use xlink:href="#SVGID_00000129885892953025904050000002574801316204328845_"  style="overflow:visible;"/>
		</clipPath>
		<g style="clip-path:url(#SVGID_00000153692590736245679100000017526580416197472151_);">
			<path style="fill:#D9EAFF;" d="M160.552,102.424c-37.025,1.506-74.05,3.011-111.076,4.517
				c-5.225,0.212-10.853,0.317-15.185-2.612c-4.332-2.929-6.013-10.152-1.824-13.281c3.693-2.759,10.094-1.272,12.399-5.265
				c1.474-2.554,0.095-5.934-2.122-7.879c-2.216-1.945-5.092-2.924-7.677-4.344c-11.396-6.26-15.96-22.429-9.518-33.723
				c4.253-7.457,12.207-12.224,20.488-14.486c8.281-2.262,16.982-2.318,25.567-2.359c25.773-0.122,51.546-0.244,77.318-0.367
				c15.041-0.071,30.64,1.679,40.62,12.933c9.979,11.254,12.897,28.288,7.231,42.221
				C191.109,91.712,175.581,101.813,160.552,102.424z"/>
			<path style="fill:#D9EAFF;" d="M393.301,51.554c-6.114,0.205-12.63,0.541-17.597,4.113c-4.966,3.572-7.136,11.654-2.651,15.815
				c3.537,3.282,9.022,2.613,13.846,2.722c4.824,0.108,10.76,2.516,10.768,7.341c0.005,2.959-2.465,5.45-5.236,6.488
				c-2.771,1.038-5.814,0.953-8.772,0.971c-8.978,0.053-18.399,1.351-25.624,6.681c-7.225,5.33-11.353,15.687-7.227,23.661
				c2.34,4.522,6.887,7.582,11.71,9.212c4.823,1.63,9.967,2,15.046,2.356c41.555,2.919,83.18,5.84,124.827,4.935
				c10.273-0.223,20.651-0.696,30.543-3.478c9.891-2.782,19.373-8.092,25.427-16.395c8.042-11.03,8.932-26.484,3.374-38.952
				c-5.558-12.468-16.997-21.864-29.934-26.222c-11.193-3.771-53.767-2.09-63.74-1.756C443.14,49.882,418.221,50.718,393.301,51.554
				z"/>
			<path style="fill:#D9EAFF;" d="M235.739,16.014c-5.17-0.07-10.55,1.28-14.388,4.745s-5.737,9.31-3.676,14.052
				c1.618,3.723,5.33,6.204,9.23,7.326c3.901,1.122,8.029,1.077,12.087,1.023c6.566-0.088,13.131-0.176,19.697-0.263
				c3.67-0.049,7.404-0.108,10.899-1.229c3.495-1.121,6.779-3.483,8.105-6.905c2.214-5.717-1.921-12.31-7.436-14.988
				c-5.593-2.716-11.487-2.243-17.465-1.983C246.972,18.044,241.574,16.093,235.739,16.014z"/>
		</g>
	</g>
</g>
<g id="OBJECTS">
	<g>
		<defs>
			<rect id="SVGID_00000057862775181482172300000005339775760161681555_" width="500" height="500"/>
		</defs>
		<clipPath id="SVGID_00000060738126354615376030000009354574019872710316_">
			<use xlink:href="#SVGID_00000057862775181482172300000005339775760161681555_"  style="overflow:visible;"/>
		</clipPath>
		<g style="clip-path:url(#SVGID_00000060738126354615376030000009354574019872710316_);">
			<g>
				<path style="fill:#8ECA98;" d="M434.539,228.322l9.078-10.976c-0.919-4.341-1.979-9.35-3.147-14.866l-29.395,25.842v-9.599
					l27.759-23.971l-28.227,15.751l-0.192-7.685l25.703-20.898c-3.266-15.431-6.92-32.696-10.493-49.583l-11.419,5.071
					l10.122-11.201c-16.174-64.688-16.174-67.64-21.671-46.893l4.996,5.518l-5.682-1.118c-2.207,14.147-4.857,31.129-7.576,48.546
					l9.993,11.843l-11.102-4.742c-7.505,48.083-15.145,97.013-15.145,97.013l32.936,26.983l36.241-28.522
					c0,0-0.954-4.503-2.564-12.109L434.539,228.322z"/>
				
					<line style="fill:none;stroke:#44283D;stroke-width:0.8;stroke-miterlimit:10;" x1="412.217" y1="324.857" x2="408.155" y2="106.11"/>
			</g>
			<g>
				<path style="fill:#539661;" d="M264.852,264.067l-9.106,3.854l7.882-9.362l-3.931-17.678l-18.317,17.175v-17.109l15.586-12.35
					l-2.843-12.783l-8.078,4.701l6.997-9.566l-9.945-44.72c-0.317-1.428-2.359-1.409-2.651,0.024l-13.905,68.465l5.924,6.588
					l-6.862-1.972l-7.106,34.987c3.999,3.695,9.901,9.087,12.571,11.222c0.929,0.48,1.466,0.811,1.396,0.908
					c-0.068,0.094-0.584-0.258-1.396-0.908c-2.725-1.408-8.891-4.119-13.6-6.153l-3.396,16.721l27.167,30.186l31.157-28.309
					L264.852,264.067z"/>
				
					<line style="fill:#44283D;stroke:#44283D;stroke-width:0.8;stroke-miterlimit:10;" x1="242.269" y1="381.368" x2="241.277" y2="205.811"/>
			</g>
		</g>
		<g style="clip-path:url(#SVGID_00000060738126354615376030000009354574019872710316_);">
			<g>
				<path style="fill:#8ECA98;" d="M84.806,225.452c0.261-2.178,0.408-4.397,0.408-6.656c0-27.222-19.587-49.29-43.749-49.29
					c-24.162,0-43.749,22.068-43.749,49.29c0,2.06,0.125,4.085,0.343,6.079c-13.526,8.384-22.695,24.589-22.695,43.212
					c0,27.222,19.587,49.29,43.749,49.29c7.971,0,15.438-2.414,21.874-6.611c6.436,4.197,13.903,6.611,21.874,6.611
					c24.162,0,43.749-22.068,43.749-49.29C106.611,249.877,97.84,233.986,84.806,225.452z"/>
			</g>
			<g>
				<g>
					
						<line style="fill:none;stroke:#44283D;stroke-width:0.8;stroke-miterlimit:10;" x1="40.987" y1="226.489" x2="40.987" y2="369.684"/>
				</g>
				<path style="fill:none;stroke:#44283D;stroke-width:0.8;stroke-miterlimit:10;" d="M9.079,255.774
					c0,0-1.93,36.928,31.909,39.248"/>
				<path style="fill:none;stroke:#44283D;stroke-width:0.8;stroke-miterlimit:10;" d="M40.987,274.647
					c0,0,27.455,2.983,26.817-31.206"/>
			</g>
		</g>
		<g style="clip-path:url(#SVGID_00000060738126354615376030000009354574019872710316_);">
			<g>
				
					<line style="fill:none;stroke:#44283D;stroke-width:0.8;stroke-miterlimit:10;" x1="89.342" y1="105.795" x2="92.055" y2="401.868"/>
				<path style="fill:none;stroke:#44283D;stroke-width:0.8;stroke-miterlimit:10;" d="M90.411,129.354
					c6.875-2.115,12.745-7.291,15.706-13.847"/>
				<path style="fill:none;stroke:#44283D;stroke-width:0.8;stroke-miterlimit:10;" d="M68.973,89.83
					c-0.458,6.597,1.27,13.326,4.85,18.886c3.58,5.559,8.992,9.918,15.187,12.23"/>
			</g>
			<path style="fill:#539661;" d="M57.706,70.538c-2.617,3.451-3.271,8.034-3.005,12.357c0.164,2.675,0.819,5.616,3.013,7.156
				c1.789,1.255,4.142,1.251,6.327,1.198c2.733-0.065,5.467-0.131,8.2-0.196c3.11-0.075,6.265-0.156,9.241-1.06
				c2.977-0.904,5.805-2.748,7.197-5.53c1.493-2.985,1.112-6.659-0.357-9.657c-2.557-5.216-8.497-8.401-14.232-8.168
				C68.286,66.874,61.866,65.053,57.706,70.538z"/>
			<path style="fill:#8ECA98;" d="M85.486,83.17c-5.692,3.572-9.255,10.298-9.011,17.013c0.244,6.715,4.285,13.165,10.221,16.314
				c5.466,2.899,11.931,3.002,18.118,3.038c4.836,0.028,9.988-0.033,14.033-2.682c3.286-2.153,5.373-5.761,6.607-9.49
				c2.161-6.529,1.871-14.176-2.157-19.751c-1.814-2.511-4.46-4.418-7.375-5.446c-3.705-1.307-16.2-1.788-19.672-1.875
				C92.488,80.197,88.684,81.164,85.486,83.17z"/>
			<path style="fill:#539661;" d="M47.1,121.801c-4.49,3.063-7.597,8.077-8.341,13.461c-0.838,6.059,1.187,12.108,3.182,17.89
				c1.47,4.26,3.129,8.784,6.756,11.458c3.393,2.502,7.876,2.893,12.091,2.829c6.017-0.092,12.192-0.986,17.403-3.997
				c9.319-5.383,13.937-17.726,10.439-27.904c-2.588-7.53-9.397-13.255-17.059-15.129C63.692,118.482,54.207,116.953,47.1,121.801z"
				/>
			<path style="fill:#8ECA98;" d="M89.797,136.272c5.518-3.955,12.587-5.07,19.376-5.141c4.316-0.045,8.734,0.308,12.684,2.046
				c5.734,2.524,10.094,8.15,10.696,14.385c0.603,6.235-2.795,12.777-8.427,15.52c-3.777,1.839-8.153,1.961-12.344,1.678
				c-7.997-0.54-21.805-2.012-27.612-8.347C78.74,150.491,84.449,140.104,89.797,136.272z"/>
		</g>
	</g>
	<g>
		<defs>
			<rect id="SVGID_00000100365357499732473760000000559367946626823335_" width="500" height="500"/>
		</defs>
		<clipPath id="SVGID_00000111152334112415642850000016888709619270224573_">
			<use xlink:href="#SVGID_00000100365357499732473760000000559367946626823335_"  style="overflow:visible;"/>
		</clipPath>
		<g style="clip-path:url(#SVGID_00000111152334112415642850000016888709619270224573_);">
			<g>
				<path style="fill:#8ECA98;" d="M532.447,377.539l-65.221-18.893c-29.067-7.091-58.877-10.644-88.797-10.58
					c-75.775,0.162-225.129,0.277-270.19-1.176c-61.241-1.975-250.099-33.567-250.099-33.567V473.26
					c0,0,309.364-29.618,358.752-29.618C266.28,443.642,532.447,377.539,532.447,377.539z"/>
			</g>
			<g>
				<path style="fill:#539661;" d="M765.986,375.286c0,0-36.349-24.089-160.806-14.612
					c-124.457,9.478-400.237,71.478-419.202,84.115l580.009-0.074V375.286z"/>
			</g>
		</g>
	</g>
	<g>
		<g>
			<rect y="412.208" style="fill:#F1DBBD;" width="500" height="87.792"/>
		</g>
	</g>
	<ellipse style="fill:#FDB852;" cx="289.575" cy="92.242" rx="34.698" ry="34.637"/>
	<g>
		<g>
			<g>
				<path style="fill:#EC715B;" d="M133.924,198.575c-0.02,0.011-0.034,0.022-0.054,0.04c-1.116,0.831-2.589,1.013-3.885,0.498
					l-1.266-0.499c-1.327-0.53-2.552-1.28-3.615-2.213c-1.034-0.899-1.932-1.976-2.62-3.188c0,0,6.384-5.411,10.929-3.276
					c0.146,0.07,0.287,0.14,0.419,0.221C137.805,192.409,135.584,197.341,133.924,198.575z"/>
				<path style="opacity:0.5;fill:#EC715B;" d="M133.924,198.575c-0.02,0.011-0.034,0.022-0.054,0.04
					c-1.116,0.831-2.589,1.013-3.885,0.498l-1.266-0.499c-1.327-0.53-2.552-1.28-3.615-2.213c0.424,0.241,0.871,0.439,1.334,0.594
					c0.736,0.243,1.551,0.378,2.285,0.131c0.734-0.247,1.345-0.976,1.248-1.748c0.462,0.6,1.451,0.566,2.04,0.09
					c0.589-0.482,0.854-1.254,0.971-2.001c0.123-0.752,0.128-1.522,0.344-2.253c0.109-0.372,0.281-0.732,0.506-1.056
					C137.805,192.409,135.584,197.341,133.924,198.575z"/>
			</g>
			<g>
				<path style="fill:#EC715B;" d="M122.786,201.482l-0.389,1.308c-0.403,1.332-1.461,2.371-2.804,2.737
					c-0.026,0.004-0.045,0.009-0.065,0.013c-1.967,0.527-7.072-0.736-6.576-5.068c0.019-0.221,0.059-0.453,0.118-0.689
					c1.148-4.886,9.352-6.544,9.352-6.544c0.656,1.654,0.953,3.417,0.876,5.165c0.004,0.026,0.002,0.045,0,0.07
					C123.254,199.488,123.082,200.497,122.786,201.482z"/>
				<path style="opacity:0.5;fill:#EC715B;" d="M122.786,201.482l-0.389,1.308c-0.403,1.332-1.461,2.371-2.804,2.737
					c-0.026,0.004-0.045,0.009-0.065,0.013c-1.967,0.527-7.072-0.736-6.576-5.068c0.486,1.054,1.382,1.928,2.492,2.261
					c1.462,0.447,3.243-0.211,3.911-1.59c-0.162,0.329,0.157,0.529,0.43,0.61c0.856,0.247,1.675-0.826,2.162-1.375
					c0.531-0.608,0.977-1.269,1.35-1.974c0.004,0.026,0.002,0.045,0,0.07C123.254,199.488,123.082,200.497,122.786,201.482z"/>
			</g>
			<g>
				<path style="fill:#EC715B;" d="M132.538,187.418c-0.106,0.118-0.257,0.251-0.442,0.394c-2.241,1.762-9.615,5.401-9.615,5.401
					c-0.409-0.704-0.546-1.536-0.374-2.335c0.412-1.936,1.292-5.725,2.467-8.529c0.87-2.08,1.908-3.617,3.04-3.473
					C130.88,179.296,133.958,185.882,132.538,187.418z"/>
				<path style="opacity:0.5;fill:#EC715B;" d="M132.538,187.418c-0.106,0.118-0.257,0.251-0.442,0.394
					c-0.138-0.089-0.27-0.189-0.394-0.295c-1.513-1.316-2.149-3.56-1.561-5.474c-1.289,0.631-2.762,0.89-4.192,0.732
					c-0.479-0.049-0.977-0.169-1.375-0.426c0.87-2.08,1.908-3.617,3.04-3.473C130.88,179.296,133.958,185.882,132.538,187.418z"/>
				<path style="fill:none;stroke:#F3F8FF;stroke-width:0.5;stroke-linecap:round;stroke-linejoin:round;stroke-miterlimit:10;" d="
					M131.703,187.516c-1.513-1.316-2.149-3.56-1.561-5.474c-1.289,0.631-2.762,0.89-4.192,0.732"/>
			</g>
			<g>
				<path style="fill:#EC715B;" d="M122.422,193.239c0,0-5.456,2.593-8.764,3.752c-0.866,0.306-1.584,0.51-2.019,0.541
					c-2.088,0.16-5.345-6.34-3.647-9.162c0.589-0.985,2.471-0.832,4.675-0.219c2.917,0.822,6.392,2.464,8.153,3.343
					C121.552,191.859,122.12,192.481,122.422,193.239z"/>
				<path style="opacity:0.5;fill:#EC715B;" d="M113.659,196.991c-0.866,0.306-1.584,0.51-2.019,0.541
					c-2.088,0.16-5.345-6.34-3.647-9.162c0.589-0.985,2.471-0.832,4.675-0.219c0.041,0.481-0.118,0.982-0.317,1.441
					c-0.512,1.189-1.256,2.281-2.182,3.192c0.798-0.038,1.462,0.586,1.988,1.186c0.607,0.689,1.196,1.447,1.423,2.339
					C113.636,196.531,113.66,196.756,113.659,196.991z"/>
				<path style="fill:none;stroke:#F3F8FF;stroke-width:0.5;stroke-linecap:round;stroke-linejoin:round;stroke-miterlimit:10;" d="
					M112.35,189.593c-0.512,1.189-1.256,2.281-2.182,3.192c0.798-0.038,1.462,0.586,1.988,1.186"/>
			</g>
			<g>
				<path style="fill:none;stroke:#44283D;stroke-width:0.5;stroke-linecap:round;stroke-linejoin:round;stroke-miterlimit:10;" d="
					M116.333,188.475c2.353,0.108,4.59,1.608,5.583,3.744c-0.833-2.129-0.743-4.588,0.375-6.583"/>
				<path style="fill:#FDB852;" d="M121.029,191.342c-0.013,0.323,0.103,0.635,0.218,0.937c0.404,1.062,0.808,2.124,1.269,3.163
					c0.541,1.219,1.16,2.402,1.853,3.541c0.353,0.58,1.033,1.538,1.471,1.313c0.593-0.304,0.079-1.805-0.284-2.649
					c-0.7-1.63-1.461-3.234-2.28-4.807c-0.3-0.576-0.559-1.401-0.96-1.903C121.846,190.349,121.061,190.555,121.029,191.342z"/>
			</g>
		</g>
		<g>
			<g>
				<path style="fill:#EC715B;" d="M468.051,184.117c-0.014-0.006-0.026-0.009-0.044-0.012c-0.908-0.249-1.619-0.958-1.885-1.865
					l-0.261-0.883c-0.27-0.929-0.381-1.895-0.326-2.85c0.048-0.926,0.249-1.854,0.608-2.726c0,0,5.546,1.15,6.3,4.463
					c0.024,0.107,0.045,0.211,0.057,0.316C472.957,183.618,469.401,184.488,468.051,184.117z"/>
				<path style="opacity:0.5;fill:#EC715B;" d="M468.051,184.117c-0.014-0.006-0.026-0.009-0.044-0.012
					c-0.908-0.249-1.619-0.958-1.885-1.865l-0.261-0.883c-0.27-0.929-0.381-1.895-0.326-2.85c0.048,0.326,0.129,0.647,0.239,0.959
					c0.177,0.493,0.444,0.984,0.882,1.273c0.438,0.288,1.081,0.311,1.452-0.063c-0.128,0.497,0.303,1.01,0.802,1.126
					c0.503,0.113,1.025-0.067,1.472-0.316c0.453-0.248,0.865-0.566,1.345-0.755c0.244-0.097,0.507-0.155,0.774-0.17
					C472.957,183.618,469.401,184.488,468.051,184.117z"/>
			</g>
			<g>
				<path style="fill:#EC715B;" d="M461.86,179.389l-0.859,0.338c-0.878,0.34-1.873,0.209-2.628-0.355
					c-0.013-0.012-0.023-0.02-0.034-0.029c-1.1-0.829-2.554-4.078-0.037-5.619c0.126-0.082,0.266-0.157,0.417-0.225
					c3.084-1.423,7.386,2.261,7.386,2.261c-0.609,1.039-1.425,1.932-2.39,2.619c-0.012,0.013-0.023,0.02-0.037,0.029
					C463.119,178.807,462.509,179.136,461.86,179.389z"/>
				<path style="opacity:0.5;fill:#EC715B;" d="M461.86,179.389l-0.859,0.338c-0.878,0.34-1.873,0.209-2.628-0.355
					c-0.013-0.012-0.023-0.02-0.034-0.029c-1.1-0.829-2.554-4.078-0.037-5.619c-0.359,0.698-0.452,1.54-0.167,2.271
					c0.371,0.966,1.464,1.642,2.478,1.423c-0.243,0.051-0.217,0.304-0.146,0.483c0.225,0.559,1.138,0.549,1.634,0.581
					c0.546,0.029,1.084-0.008,1.615-0.102c-0.012,0.013-0.023,0.02-0.037,0.029C463.119,178.807,462.509,179.136,461.86,179.389z"/>
			</g>
			<g>
				<path style="fill:#EC715B;" d="M473.424,178.73c-0.107-0.007-0.241-0.033-0.394-0.072c-1.873-0.461-6.886-2.877-6.886-2.877
					c0.205-0.511,0.592-0.931,1.09-1.172c1.204-0.587,3.591-1.696,5.576-2.238c1.471-0.403,2.724-0.489,3.119,0.174
					C477.064,174.461,474.834,178.847,473.424,178.73z"/>
				<path style="opacity:0.5;fill:#EC715B;" d="M473.424,178.73c-0.107-0.007-0.241-0.033-0.394-0.072
					c-0.01-0.111-0.012-0.223-0.007-0.333c0.072-1.355,1.003-2.629,2.269-3.113c-0.874-0.425-1.625-1.102-2.137-1.931
					c-0.174-0.276-0.317-0.591-0.345-0.911c1.471-0.403,2.724-0.489,3.119,0.174C477.064,174.461,474.834,178.847,473.424,178.73z"
					/>
				
					<path style="fill:none;stroke:#F3F8FF;stroke-width:0.3384;stroke-linecap:round;stroke-linejoin:round;stroke-miterlimit:10;" d="
					M473.023,178.325c0.072-1.355,1.003-2.629,2.269-3.113c-0.874-0.425-1.625-1.102-2.137-1.931"/>
			</g>
			<g>
				<path style="fill:#EC715B;" d="M466.105,175.76c0,0-3.656-1.829-5.652-3.11c-0.524-0.335-0.932-0.632-1.13-0.851
					c-0.955-1.047,1.154-5.492,3.366-5.762c0.771-0.096,1.473,0.971,2.065,2.402c0.777,1.898,1.349,4.435,1.614,5.741
					C466.478,174.721,466.383,175.284,466.105,175.76z"/>
				<path style="opacity:0.5;fill:#EC715B;" d="M460.453,172.65c-0.524-0.335-0.932-0.632-1.13-0.851
					c-0.955-1.047,1.154-5.492,3.366-5.762c0.771-0.096,1.473,0.971,2.065,2.402c-0.24,0.222-0.573,0.346-0.901,0.431
					c-0.847,0.223-1.74,0.281-2.612,0.166c0.353,0.41,0.297,1.024,0.196,1.555c-0.115,0.611-0.274,1.241-0.654,1.733
					C460.688,172.446,460.579,172.553,460.453,172.65z"/>
				
					<path style="fill:none;stroke:#F3F8FF;stroke-width:0.3384;stroke-linecap:round;stroke-linejoin:round;stroke-miterlimit:10;" d="
					M463.852,168.87c-0.847,0.223-1.74,0.281-2.612,0.166c0.353,0.41,0.297,1.024,0.196,1.555"/>
			</g>
			<g>
				
					<path style="fill:none;stroke:#44283D;stroke-width:0.3384;stroke-linecap:round;stroke-linejoin:round;stroke-miterlimit:10;" d="
					M466.108,170.528c0.923,1.3,1.055,3.118,0.329,4.537c0.789-1.331,2.137-2.308,3.667-2.543"/>
				<path style="fill:#FDB852;" d="M466.536,174.227c-0.178,0.127-0.296,0.32-0.409,0.507c-0.398,0.658-0.796,1.316-1.158,1.994
					c-0.424,0.796-0.798,1.62-1.117,2.464c-0.163,0.43-0.39,1.191-0.087,1.331c0.409,0.189,0.995-0.71,1.295-1.255
					c0.577-1.053,1.116-2.126,1.613-3.219c0.182-0.4,0.514-0.882,0.615-1.305C467.406,174.249,466.969,173.916,466.536,174.227z"/>
			</g>
		</g>
	</g>
	<g>
		<g>
			<rect x="140.15" y="331.274" style="fill:#B77355;" width="4.898" height="81.783"/>
			<rect x="135.608" y="381.296" style="fill:#B77355;" width="13.983" height="3.718"/>
		</g>
		<g>
			<rect x="24.917" y="331.274" style="fill:#B77355;" width="4.898" height="81.783"/>
			<rect x="20.374" y="381.296" style="fill:#B77355;" width="13.983" height="3.718"/>
		</g>
		<path style="fill:#F1DBBD;" d="M157.089,381.296H12.473c-0.721,0-1.306-0.585-1.306-1.306v-4.902c0-0.721,0.585-1.306,1.306-1.306
			h144.616c0.721,0,1.306,0.585,1.306,1.306v4.902C158.395,380.711,157.81,381.296,157.089,381.296z"/>
		<g>
			<path style="fill:#F1DBBD;" d="M157.089,348.409H12.473c-0.721,0-1.306-0.585-1.306-1.306v-8.971
				c0-0.721,0.585-1.306,1.306-1.306h144.616c0.721,0,1.306,0.585,1.306,1.306v8.971
				C158.395,347.825,157.81,348.409,157.089,348.409z"/>
		</g>
		<g>
			<path style="fill:#F1DBBD;" d="M157.089,362.542H12.473c-0.721,0-1.306-0.585-1.306-1.306v-8.971
				c0-0.721,0.585-1.306,1.306-1.306h144.616c0.721,0,1.306,0.585,1.306,1.306v8.971
				C158.395,361.957,157.81,362.542,157.089,362.542z"/>
		</g>
	</g>
	<g>
		<g>
			<g>
				<g>
					<g>
						<g>
							<g>
								<path style="fill:#EFA59E;" d="M350.897,399.509c0,0,30.67,24.653,29.282,27.532l7.951,4.621l18.291-14.532l-31.637-31.392
									L350.897,399.509z"/>
								<g>
									<path style="fill:#F3F8FF;" d="M380.086,426.128L369.41,448.26c-0.917,1.901,1.372,6.473,3.007,7.806l0,0l40.314-33.316
										l-13.313-13.838c0,0-3.877,2.308-10.731,12.507C384.583,427.525,380.086,426.128,380.086,426.128z"/>
								</g>
							</g>
							<g>
								
									<line style="fill:none;stroke:#6A959A;stroke-width:0.4686;stroke-miterlimit:10;" x1="369.241" y1="449.499" x2="408.287" y2="418.219"/>
								<path style="fill:none;stroke:#6A959A;stroke-width:0.4686;stroke-miterlimit:10;" d="M401.653,411.793
									c0,0-7.079,7.751-4.389,15.444"/>
								<path style="fill:none;stroke:#6A959A;stroke-width:0.4686;stroke-miterlimit:10;" d="M373.014,440.239
									c0,0,0.791,2.263,3.964-0.574c3.173-2.836,5.813-0.661,5.813-0.661"/>
								<path style="fill:none;stroke:#6A959A;stroke-width:0.4686;stroke-miterlimit:10;" d="M381.299,430.383
									c0,0,1.11-6.991-2.319-7.214c-5.284-0.343-0.236,5.285,1.307,6.893c0.067,0.069-0.018,0.174-0.102,0.128
									c-1.524-0.837-5.936-3.027-6.754-0.815c-0.992,2.683,6.282,2.425,6.282,2.425"/>
							</g>
						</g>
						<g>
							<path style="fill:#FDB852;" d="M381.944,354.98l-14.384,17.769l23.459,27.167l-21.535,15.9l-44.322-35.867
								c0,0,19.975-28.354,47.898-47.392L381.944,354.98z"/>
						</g>
						<g>
							<path style="fill:#FDB852;" d="M381.944,354.98l-14.384,17.769l23.459,27.167l-21.535,15.9l-44.322-35.867
								c0,0,19.975-28.354,47.898-47.392L381.944,354.98z"/>
						</g>
					</g>
					<g>
						<path style="fill:#6A959A;" d="M369.224,406.863l-0.004-0.083l0.889,0.034c0.224-0.01,0.445-0.034,0.671-0.034
							c0.633,0,1.252,0.053,1.864,0.13l59.051,2.25c4.513,0,8.171,3.658,8.171,8.171c0,4.513-3.658,8.171-8.171,8.171l-55.942,9.881
							c-1.555,0.558-3.225,0.878-4.973,0.878c-8.141,0-14.741-6.6-14.741-14.741C356.04,413.905,361.815,407.641,369.224,406.863z"
							/>
						<path style="fill:#44283D;" d="M271.634,418.887c0,3.379,2.74,6.119,6.119,6.119s6.119-2.74,6.119-6.119
							c0-3.379-2.74-6.119-6.119-6.119S271.634,415.508,271.634,418.887z"/>
						
							<polyline style="fill:none;stroke:#D9EAFF;stroke-width:2.9442;stroke-linecap:round;stroke-linejoin:round;stroke-miterlimit:10;" points="
							406.068,352.485 370.781,419.717 294.562,349.361 						"/>
						<path style="fill:#44283D;" d="M386.699,350.948c0.684-7.321,12.132-8.277,19.424-7.336l16.004,2.063
							c1.657,0.214,2.898,1.625,2.898,3.296l0,0c0,1.672-1.788,3.325-3.445,3.544c-3.496,0.461-7.637,0.858-27.373,0.944
							C392.973,353.464,386.568,352.343,386.699,350.948z"/>
						
							<polyline style="fill:none;stroke:#D9EAFF;stroke-width:2.9442;stroke-linecap:round;stroke-linejoin:round;stroke-miterlimit:10;" points="
							401.097,361.957 431.683,418.887 445.951,360.453 						"/>
						<path style="fill:#44283D;" d="M232.299,418.887c0-25.291,20.575-45.867,45.866-45.867s45.867,20.576,45.867,45.867
							c0,25.291-20.576,45.867-45.867,45.867S232.299,444.178,232.299,418.887z M235.058,418.887
							c0,23.77,19.338,43.108,43.107,43.108c23.77,0,43.108-19.338,43.108-43.108c0-23.769-19.338-43.108-43.108-43.108
							C254.395,375.78,235.058,395.118,235.058,418.887z"/>
						<path style="fill:#44283D;" d="M385.276,418.887c0-25.291,20.576-45.867,45.867-45.867c25.291,0,45.867,20.576,45.867,45.867
							c0,25.291-20.576,45.867-45.867,45.867C405.852,464.754,385.276,444.178,385.276,418.887z M388.375,418.887
							c0,23.582,19.185,42.768,42.767,42.768c23.582,0,42.768-19.186,42.768-42.768c0-23.582-19.185-42.768-42.768-42.768
							C407.561,376.12,388.375,395.305,388.375,418.887z"/>
						<path style="fill:none;stroke:#44283D;stroke-width:0.9013;stroke-miterlimit:10;" d="M359.935,421.33
							c0,5.835,4.73,10.565,10.565,10.565c5.835,0,10.565-4.73,10.565-10.565s-4.73-10.565-10.565-10.565
							C364.665,410.765,359.935,415.495,359.935,421.33z"/>
						
							<line style="fill:none;stroke:#D9EAFF;stroke-width:2.9442;stroke-linecap:round;stroke-linejoin:round;stroke-miterlimit:10;" x1="295.135" y1="339.461" x2="277.753" y2="418.887"/>
						<g>
							<path style="fill:#44283D;" d="M296.533,341.019l2.403-11.957c0.104-0.52-0.046-1.059-0.405-1.45
								c-0.358-0.391-0.883-0.586-1.41-0.527l-19.127,2.165l0.374,3.298l16.864-1.908l-1.955,9.723L296.533,341.019z"/>
							<path style="fill:#44283D;" d="M276.554,331.222c0.177,0.899,1.049,1.484,1.948,1.306c0.899-0.177,1.484-1.049,1.306-1.948
								c-0.177-0.899-1.049-1.483-1.948-1.306C276.962,329.451,276.377,330.323,276.554,331.222z"/>
						</g>
						<g>
							<path style="fill:#44283D;" d="M417.262,358.165c0.254-0.188,0.561-0.29,0.877-0.29h78.526c0.813,0,1.472,0.659,1.472,1.472
								c0,0.813-0.659,1.472-1.472,1.472h-78.04l-11.681,8.658c-0.031,0.023-0.067,0.031-0.099,0.051l-1.391-2.612L417.262,358.165z
								"/>
						</g>
					</g>
				</g>
				<g>
					<g>
						<g>
							<path style="fill:#EFA59E;" d="M449.304,295.378c0.066-0.164,0.089-0.333,0.117-0.692c0.007-0.089,0.01-0.181-0.027-0.262
								c-0.127-0.278-0.563-0.168-0.772,0.054c-0.295,0.313-0.436,0.764-0.37,1.189c-0.045-0.596-0.221-1.182-0.511-1.705
								c-0.046-0.083-0.1-0.168-0.186-0.207c-0.257-0.112-0.447,0.259-0.466,0.539c-0.03,0.436-0.005,0.876,0.072,1.306
								c-0.049-0.478-0.258-0.938-0.586-1.289c-0.064-0.068-0.156-0.137-0.241-0.098c-0.069,0.032-0.09,0.117-0.101,0.193
								c-0.089,0.618-0.018,1.258,0.205,1.842c-0.225-0.327-0.45-0.655-0.674-0.982c-0.067-0.097-0.144-0.201-0.259-0.225
								c-0.157-0.032-0.306,0.113-0.337,0.271c-0.031,0.157,0.024,0.317,0.082,0.467c0.137,0.359,0.295,0.711,0.471,1.053
								c-0.129-0.163-0.433-0.333-0.626-0.257c-0.495,0.196,0.25,0.951,0.702,1.231c0.305,0.188,0.66,0.243,1.021,0.259l0.606,1.732
								c2.729,6.978,4.806,10.422,6.317,12.114c0.987-2.201,1.89-4.436,2.677-6.698
								C452.239,300.779,449.403,295.562,449.304,295.378z"/>
						</g>
						<path style="fill:#8ECA98;" d="M457.871,303.495l-7.211,6.36c0.704,3.052,8.687,7.748,8.922,10.566
							c0.235,2.818-3.757,16.67-3.757,16.67l23.479,2.113l10.566-26.062c0,0-2.411-3.183-8.515-3.183
							c-6.105,0-8.402,1.798-13.332-0.784C465.226,307.709,459.752,304.47,457.871,303.495z"/>
						<path style="fill:#44283D;" d="M468.685,309.446c0,0-3.468,6.513-1.824,11.444c1.644,4.931-1.903,14.609-11.057,16.133
							l0.878-3.024c0,0,8.415-1.8,8.3-7.005c-0.15-6.811-1.772-16.601,1.515-18.949L468.685,309.446z"/>
						<path style="fill:none;stroke:#44283D;stroke-width:0.5;stroke-linecap:round;stroke-miterlimit:10;" d="M459.416,319.936
							c0,0,3.046,2.916,3.241,5.25"/>
						<g>
							<path style="fill:#EFA59E;" d="M446.007,344.086c-0.845,0.441-1.687,0.956-2.511,1.571c-3.564,2.656-7.263,7.205-8.314,8.536
								c-0.915-0.243-6.358-1.628-6.448-0.129c-0.132,2.205,3.661,2.489,5.971,4.225c1.23,0.925,2.96-0.882,4.215-2.596
								c1.87-1.223,5.651-3.456,9.83-4.625C447.844,348.745,446.9,346.423,446.007,344.086z"/>
							<path style="fill:#EC715B;" d="M462.01,339.107l-1.176-3.529l-5.008,1.512c0,0-14.991,7.637-17.866,13.388
								c0.653,0.131,4.836,3.529,4.836,3.529S449.461,356.099,462.01,339.107z"/>
							<path style="fill:#EFA59E;" d="M454.479,344.51c-0.845,0.441-1.687,0.956-2.512,1.571c-3.564,2.656-7.264,7.205-8.314,8.536
								c-0.915-0.243-6.358-1.628-6.448-0.129c-0.132,2.205,3.661,2.489,5.97,4.225c1.23,0.925,2.96-0.882,4.216-2.596
								c1.87-1.223,5.651-3.455,9.83-4.625C456.316,349.168,455.371,346.847,454.479,344.51z"/>
							<path style="fill:#EC715B;" d="M460.833,335.578c0,0-13.202,9.019-15.032,16.862l3.529,3.921c0,0,24.835-6.797,27.972-15.162
								C480.44,332.833,460.833,335.578,460.833,335.578z"/>
							<path style="fill:none;stroke:#44283D;stroke-width:0.5;stroke-linecap:round;stroke-miterlimit:10;" d="M444.956,351.27
								c0,0,2.025-5.626,14.178-11.252"/>
						</g>
					</g>
					<g>
						<g>
							<path style="fill:#EFA59E;" d="M466.696,301.926c-0.732,5.883,1.884,10.461,7.205,11.123
								c5.321,0.662,10.215-2.077,10.946-7.96c0.732-5.883-2.988-11.188-8.309-11.85
								C471.217,292.577,467.428,296.043,466.696,301.926z"/>
							<path style="fill:#44283D;" d="M480.907,292.263c6.99,1.627,4.861,12.709,3.116,13.211c0,0,0.71-4.473-0.431-5.074
								c-2.411-1.269-2.239-3.177-2.791-5.347c0,0-2.652-1.178-5.522,1.609c-4.187,4.066-8.412,1.842-8.412,1.842
								S467.374,289.113,480.907,292.263z"/>
							<path style="fill:#EFA59E;" d="M482.517,305.421c-0.07,1.287,0.917,2.386,2.203,2.455c1.286,0.07,2.386-0.917,2.455-2.203
								c0.07-1.286-0.917-2.385-2.203-2.455C483.686,303.148,482.587,304.134,482.517,305.421z"/>
							<g>
								<path style="fill:#44283D;" d="M485.199,305.021c1.302,0.125,1.278,1.703-0.087,1.612c0.194-0.247,0.55-0.473,0.56-0.747
									C485.686,305.694,485.424,305.371,485.199,305.021L485.199,305.021z"/>
							</g>
						</g>
						<g>
							<path style="fill:#44283D;" d="M469.254,302.519c0.059,0.436-0.156,0.825-0.479,0.868c-0.323,0.043-0.632-0.275-0.691-0.711
								c-0.059-0.436,0.156-0.825,0.479-0.868C468.886,301.765,469.196,302.083,469.254,302.519z"/>
							<path style="fill:#44283D;" d="M478.43,302.538c0.059,0.436-0.155,0.825-0.479,0.868c-0.323,0.043-0.632-0.275-0.691-0.711
								c-0.059-0.436,0.156-0.825,0.479-0.868C478.062,301.784,478.372,302.102,478.43,302.538z"/>
						</g>
						
							<path style="fill:none;stroke:#44283D;stroke-width:0.5;stroke-linecap:round;stroke-linejoin:round;stroke-miterlimit:10;" d="
							M472.76,305.613l-1.438-1.003c0.675-0.881,1.294-2.596,1.294-2.596"/>
						
							<path style="fill:none;stroke:#44283D;stroke-width:0.5;stroke-linecap:round;stroke-linejoin:round;stroke-miterlimit:10;" d="
							M471.254,307.576c0,0,2.418,3.027,5.004-0.802"/>
						<g>
							<path style="opacity:0.5;fill:#EFA59E;" d="M481.971,305.128c0.169,0.786-0.664,1.631-1.86,1.888
								c-1.196,0.257-2.302-0.172-2.471-0.958c-0.169-0.786,0.664-1.631,1.86-1.888
								C480.696,303.913,481.802,304.342,481.971,305.128z"/>
							<path style="opacity:0.5;fill:#EFA59E;" d="M466.633,304.428c1.222-0.049,2.691,0.555,2.723,1.359
								c0.03,0.761-1.178,1.601-2.308,1.71C466.749,306.504,466.633,304.428,466.633,304.428z"/>
						</g>
						<path style="fill:#44283D;" d="M479.168,292.789c-0.013,2.182,1.797,3.961,4.042,3.974c2.245,0.013,4.075-1.745,4.088-3.926
							c0.013-2.182-1.797-3.961-4.042-3.974C481.011,288.85,479.18,290.608,479.168,292.789z"/>
						<path style="fill:#44283D;" d="M472.752,295.604c0,0,6.657,5.729,11.457,3.611l-2.216-5.48L472.752,295.604z"/>
					</g>
					<path style="fill:#44283D;" d="M490.105,310.794c0,0-11.27-0.47-16.201,7.513c-4.931,7.983-2.113,15.731,4.226,19.488
						l-2.113,2.113c0,0-9.157-3.757-8.452-13.383c0.704-9.626,6.339-20.192,23.244-18.548L490.105,310.794z"/>
					<g>
						<g>
							<path style="fill:#EFA59E;" d="M465.789,338.114c-0.175-0.028-0.344-0.013-0.7,0.04c-0.088,0.013-0.179,0.031-0.25,0.085
								c-0.242,0.186-0.038,0.586,0.225,0.741c0.371,0.218,0.843,0.254,1.242,0.095c-0.571,0.177-1.103,0.479-1.548,0.879
								c-0.07,0.063-0.142,0.135-0.16,0.228c-0.052,0.275,0.353,0.378,0.63,0.334c0.432-0.068,0.855-0.19,1.257-0.362
								c-0.455,0.154-0.857,0.461-1.126,0.859c-0.052,0.077-0.099,0.183-0.042,0.257c0.046,0.06,0.135,0.062,0.21,0.056
								c0.622-0.051,1.23-0.263,1.749-0.611c-0.269,0.292-0.538,0.585-0.807,0.877c-0.079,0.086-0.164,0.185-0.161,0.303
								c0.004,0.16,0.179,0.273,0.339,0.268c0.16-0.005,0.304-0.094,0.437-0.184c0.319-0.214,0.627-0.446,0.921-0.694
								c-0.13,0.162-0.228,0.496-0.111,0.668c0.301,0.439,0.872-0.456,1.043-0.96c0.115-0.339,0.089-0.698,0.024-1.053l1.553-0.978
								c6.193-4.219,9.086-7.011,10.398-8.863c-2.366-0.47-4.746-0.851-7.126-1.114
								C470.398,334.047,465.946,337.976,465.789,338.114z"/>
						</g>
						<path style="fill:#8ECA98;" d="M487.214,310.971c0,0-0.619,17.564-5.433,21.275l-11.233-1.404c0,0,1.463-6.24,3.836-8.766
							L487.214,310.971z"/>
					</g>
					<path style="fill:#44283D;" d="M474.64,335.605c0,0-3.026,11.16-14.399,15.627c-11.374,4.466-10.857,3.081-14.293,4.591
						c-0.925,0.407-3.644,3.645,2.194,3.395c4.816-0.206,25.502-0.386,32.6-0.442c1.743-0.014,3.347-0.868,4.363-2.285
						c1.351-1.886,3.066-4.985,3.996-9.435c1.474-7.05,5.016-29.848,7.152-40.538c0.214-1.069-0.952-1.933-1.952-1.498
						c-1.803,0.784-4.529,2.458-7.088,5.952C482.879,316.887,474.64,335.605,474.64,335.605z"/>
				</g>
				<path style="fill:#44283D;" d="M426.037,417.377c0,2.82,2.286,5.106,5.106,5.106c2.82,0,5.106-2.286,5.106-5.106
					c0-2.82-2.286-5.106-5.106-5.106C428.323,412.271,426.037,414.557,426.037,417.377z"/>
			</g>
			<g>
				<g>
					<g>
						<g>
							<path style="fill:#EFA59E;" d="M340.189,391.607c0,0,35.044,21.867,33.884,24.846l8.288,3.986l17.101-15.915l-36.534-28.51
								L340.189,391.607z"/>
							<g>
								<path style="fill:#F3F8FF;" d="M373.909,415.549l-8.916,22.898c-0.766,1.966,1.873,6.346,3.607,7.547l0,0l37.592-36.359
									l-14.352-12.757c0,0-3.685,2.604-9.723,13.306C378.501,416.591,373.909,415.549,373.909,415.549z"/>
							</g>
						</g>
						<g>
							
								<line style="fill:none;stroke:#6A959A;stroke-width:0.4686;stroke-miterlimit:10;" x1="364.921" y1="439.694" x2="401.407" y2="405.464"/>
							<path style="fill:none;stroke:#6A959A;stroke-width:0.4686;stroke-miterlimit:10;" d="M394.292,399.576
								c0,0-6.453,8.279-3.17,15.739"/>
							<path style="fill:none;stroke:#6A959A;stroke-width:0.4686;stroke-miterlimit:10;" d="M367.959,430.168
								c0,0,0.965,2.194,3.907-0.881c2.942-3.075,5.743-1.113,5.743-1.113"/>
							<path style="fill:none;stroke:#6A959A;stroke-width:0.4686;stroke-miterlimit:10;" d="M375.451,419.696
								c0,0,0.562-7.056-2.875-7.01c-5.294,0.07,0.177,5.287,1.841,6.77c0.072,0.064-0.004,0.175-0.092,0.136
								c-1.584-0.715-6.155-2.554-6.797-0.285c-0.779,2.752,6.453,1.927,6.453,1.927"/>
						</g>
					</g>
					<g>
						<g>
							<path style="fill:#FDB852;" d="M421.29,318.173l-35.488,0.027l-35.622,18.131c-5.652,2.966-11.028,6.424-16.008,10.418
								c-8.875,7.117-21.047,18.448-16.742,24.906c6.805,10.207,40.904,34.27,40.904,34.27l19.95-19.826l-23.11-18.304
								c0,0,46.323-16.349,46.323-16.349c7.311-1.595,14.67-3.606,18.1-5.772C427.636,340.595,421.29,318.173,421.29,318.173z"/>
							<g>
								<path style="fill:none;stroke:#44283D;stroke-width:0.5;stroke-linecap:round;stroke-miterlimit:10;" d="M357.73,366.091
									c0,0-15.517,3.667-23.41,1.919"/>
								<path style="fill:none;stroke:#44283D;stroke-width:0.5;stroke-linecap:round;stroke-miterlimit:10;" d="M340.869,361.956
									c0,0,3.569,3.318,9.191,3.681"/>
								<path style="fill:none;stroke:#44283D;stroke-width:0.5;stroke-linecap:round;stroke-miterlimit:10;" d="M408.634,320.568
									c0,0,7.332,13.355-3.666,18.069c-11.95,5.121-57.61,19.902-57.61,19.902"/>
							</g>
						</g>
					</g>
				</g>
				<g>
					<g>
						<g>
							<path style="fill:#EC715B;" d="M341.292,240.19c0,0-11.373-10.004,1.148-13.202c12.521-3.199,10.313,7.908,16.979,2.476
								c6.666-5.432,13.598,18.799,5.267,19.877C356.356,250.418,341.292,240.19,341.292,240.19z"/>
							<g>
								<g>
									<g>
										<g>
											<path style="fill:#EFA59E;" d="M339.85,248.254c1.775,6.084,5.561,14.219,13.005,13.243l8.93,15.236
												c0,0,8.388,3.961,15.071-10.901l-13.016-18.116c0,0-5.431-14.326-13.154-14.705c-1.931-0.095-3.66,0.414-5.167,1.232
												C340.555,236.933,338.269,242.835,339.85,248.254z"/>
											<g>
												<g>
													<g>
														<path style="fill:#EFA59E;" d="M361.84,242.424l-0.499,0.071c-2.313-4.138-6.075-9.26-10.656-9.485
															c-1.931-0.095-3.659,0.415-5.167,1.232c-4.964,2.691-7.25,8.594-5.669,14.012c1.775,6.084,5.562,14.219,13.005,13.243
															l8.929,15.236c0,0,8.389,3.961,15.071-10.901l-13.016-18.117c0,0-0.165-0.427-0.454-1.097
															C364.955,245.187,363.953,242.122,361.84,242.424"/>
														<g>
															<path style="fill:#44283D;" d="M362.056,245.598c-0.633-0.707-0.16-2.415,0.955-1.708
																C362.106,244.039,362.28,244.848,362.056,245.598L362.056,245.598z"/>
														</g>
													</g>
													<path style="opacity:0.5;fill:#EFA59E;" d="M352.855,261.497c0,0,5.291-1.017,9.957-9.625
														c0,0-1.445,9.969-7.701,13.475L352.855,261.497z"/>
												</g>
											</g>
										</g>
									</g>
								</g>
							</g>
							<path style="fill:#EC715B;" d="M362.6,238.484l-1.259,4.011c0,0-6.631-1.132-8.416-5.391
								c-1.785-4.26-6.907,2.888-10.478,5.303c-3.57,2.414-10.813-2.829-4.924-7.261c5.89-4.432,9.486-7.062,13.271-3.983
								C354.58,234.241,365.187,233.328,362.6,238.484z"/>
							<g>
								<path style="fill:#EC715B;" d="M356.134,248.047c1.717-3.859,0.656-6.979,0.152-8.041c0.481,0.145,0.966,0.281,1.453,0.405
									c1.064,1.841,2.626,4.544,2.65,4.59c3.499,6.652-0.639,15.088-7.294,16.43c-7.452,1.502-11.652-8.384-11.841-8.804
									C341.049,252.171,354.125,252.561,356.134,248.047z"/>
							</g>
						</g>
						<g>
							
								<path style="fill:none;stroke:#44283D;stroke-width:0.5;stroke-linecap:round;stroke-linejoin:round;stroke-miterlimit:10;" d="
								M350.551,252.9c0,0-1.864,5.021-6.916,1.113"/>
							
								<path style="fill:none;stroke:#44283D;stroke-width:0.5;stroke-linecap:round;stroke-linejoin:round;stroke-miterlimit:10;" d="
								M343.579,244.003c0,0,0.263,2.103-0.768,5.225c-0.283,0.856,2.833,1.017,2.833,1.017"/>
							
								<path style="fill:none;stroke:#44283D;stroke-width:0.5;stroke-linecap:round;stroke-linejoin:round;stroke-miterlimit:10;" d="
								M347.221,243.418c0,0,0.406,2.653,1.667,2.682c1.26,0.029,1.604-2.696,1.604-2.696"/>
							
								<path style="fill:none;stroke:#44283D;stroke-width:0.5;stroke-linecap:round;stroke-linejoin:round;stroke-miterlimit:10;" d="
								M340.225,245.487c0,0,0.318,2.64,1.112,2.633c0.794-0.007,0.946-2.74,0.946-2.74"/>
						</g>
					</g>
					<g>
						<path style="fill:#4C4DB6;" d="M371.205,258.658c0,0,18.892,6.136,34.706,28.241c19.644,27.457,18.502,45.65,18.502,45.65
							c-24.829-1.461-41.176-13.069-41.176-13.069s0.214-15.279-22.149-45.558L371.205,258.658z"/>
						<g>
							<polygon style="opacity:0.5;fill:#EFA59E;" points="375.723,296.937 385.843,283.364 380.083,306.485 							"/>
							<polygon style="fill:#4C4DB6;" points="371.205,258.658 348.185,292.813 365.72,309.224 389.768,278.1 							"/>
							<g>
								<path style="fill:#EFA59E;" d="M348.185,292.813l-11.529,16.035l-40.444,14.132l6.062,7.026l43.19-5.036
									c4.222-0.379,8.164-2.272,11.1-5.329l9.156-10.418L348.185,292.813z"/>
								<path style="fill:#EFA59E;" d="M301.302,321.716c0,0-8.581,0.95-11.273,4.324c-3.517,4.409,0.488,9.266,3.244,8.256
									c2.756-1.01,5.486-3.973,5.486-3.973l4.414-0.449L301.302,321.716z"/>
							</g>
							
								<line style="fill:none;stroke:#F3F8FF;stroke-width:0.5;stroke-linecap:round;stroke-miterlimit:10;" x1="369.586" y1="304.198" x2="351.9" y2="287.573"/>
						</g>
						<g>
							<defs>
								<path id="SVGID_00000114057027740749189060000011446807449961936308_" d="M405.911,286.899
									c-15.815-22.104-34.706-28.241-34.706-28.241l-23.019,34.155l17.535,16.411l9.747-12.616
									c7.866,15.208,7.769,22.872,7.769,22.872s16.348,11.608,41.176,13.069C424.413,332.549,425.555,314.357,405.911,286.899z"/>
							</defs>
							<clipPath id="SVGID_00000009580912014646521540000014127023179950314916_">
								<use xlink:href="#SVGID_00000114057027740749189060000011446807449961936308_"  style="overflow:visible;"/>
							</clipPath>
							<g style="opacity:0.5;clip-path:url(#SVGID_00000009580912014646521540000014127023179950314916_);">
								<g>
									<path style="fill:#4C4DB6;" d="M326.626,277.817c28.86,1.585,57.745,2.714,86.641,3.377
										c8.137,0.187,16.276,0.336,24.414,0.45c-0.589-1.423-1.178-2.845-1.768-4.268c-2.451,2.63-5.812,3.881-9.17,4.928
										c-4.256,1.328-8.536,2.582-12.794,3.904c-8.861,2.75-17.692,5.6-26.489,8.548c-17.442,5.846-34.754,12.079-51.918,18.695
										c-9.711,3.743-19.375,7.611-28.99,11.595c-1.15,0.477-1.991,1.412-1.791,2.743c0.168,1.114,1.204,2.308,2.455,2.168
										c24.348-2.724,48.768-4.784,73.229-6.167c24.378-1.378,48.793-2.086,73.21-2.124c13.776-0.021,27.551,0.174,41.321,0.577
										c3.219,0.094,3.216-4.906,0-5c-24.489-0.718-48.997-0.768-73.488-0.14c-24.409,0.626-48.8,1.923-73.138,3.888
										c-13.731,1.109-27.444,2.433-41.135,3.964c0.221,1.637,0.443,3.274,0.665,4.911c17.292-7.167,34.743-13.948,52.341-20.327
										c17.522-6.352,35.186-12.309,52.977-17.864c4.887-1.526,9.796-2.978,14.686-4.493c4.224-1.309,8.484-2.968,11.564-6.273
										c1.472-1.579,0.441-4.237-1.768-4.268c-28.901-0.405-57.795-1.268-86.668-2.596c-8.131-0.374-16.26-0.785-24.387-1.232
										C323.411,272.64,323.421,277.641,326.626,277.817L326.626,277.817z"/>
								</g>
							</g>
						</g>
					</g>
				</g>
			</g>
			
				<line style="fill:none;stroke:#F3F8FF;stroke-width:0.5;stroke-linecap:round;stroke-miterlimit:10;" x1="375.723" y1="296.937" x2="389.768" y2="278.1"/>
		</g>
		<g>
			<g>
				<g>
					<g>
						<g>
							<path style="fill:#44283D;" d="M116.615,433.145l-2.403,7.108l-16.999,10.876c-1.322,0.644-2.028,3.334-1.709,4.768l0,0
								l35.597-0.082l1.895-20.974L116.615,433.145z"/>
							<g>
								
									<line style="fill:none;stroke:#F3F8FF;stroke-width:0.5;stroke-linecap:round;stroke-linejoin:round;stroke-miterlimit:10;" x1="96.587" y1="451.733" x2="131.091" y2="451.758"/>
							</g>
						</g>
						<circle style="fill:#44283D;" cx="127.877" cy="461.033" r="3.214"/>
						<circle style="fill:#44283D;" cx="118.329" cy="461.033" r="3.214"/>
						<circle style="fill:#44283D;" cx="108.782" cy="461.033" r="3.214"/>
						<circle style="fill:#44283D;" cx="99.235" cy="461.033" r="3.214"/>
					</g>
					<g>
						<g>
							<path style="fill:#44283D;" d="M197.116,429.201l2.989,6.882l-5.302,19.471c-0.547,1.365,0.734,3.833,1.933,4.682l0,0
								l26.335-23.951l-12.672-16.82L197.116,429.201z"/>
							<g>
								
									<line style="fill:none;stroke:#F3F8FF;stroke-width:0.5;stroke-linecap:round;stroke-linejoin:round;stroke-miterlimit:10;" x1="194.744" y1="456.422" x2="220.339" y2="433.284"/>
							</g>
						</g>
						<path style="fill:#44283D;" d="M221.798,444.474c1.192,1.316,3.224,1.417,4.54,0.226s1.417-3.224,0.226-4.54
							c-1.191-1.316-3.224-1.417-4.54-0.226C220.708,441.125,220.607,443.158,221.798,444.474z"/>
						<path style="fill:#44283D;" d="M214.721,450.882c1.191,1.316,3.224,1.417,4.54,0.226c1.316-1.191,1.417-3.224,0.226-4.54
							c-1.191-1.316-3.224-1.417-4.54-0.226C213.63,447.533,213.529,449.566,214.721,450.882z"/>
						<path style="fill:#44283D;" d="M207.643,457.29c1.191,1.316,3.224,1.417,4.54,0.226s1.417-3.224,0.226-4.54
							c-1.191-1.316-3.224-1.417-4.54-0.226S206.452,455.974,207.643,457.29z"/>
						<path style="fill:#44283D;" d="M200.566,463.697c1.191,1.316,3.224,1.417,4.54,0.226s1.417-3.224,0.226-4.54
							c-1.191-1.316-3.224-1.417-4.54-0.226C199.475,460.348,199.374,462.381,200.566,463.697z"/>
					</g>
					<path style="fill:#4C4DB6;" d="M188.411,302.798c0,0-2.215,66.257,0.604,76.729c2.819,10.472,26.583,46.521,26.583,46.521
						l-16.715,12.083l-28.195-34.639c0,0-7.653-7.049-7.25-24.771c0.403-17.722,2.417-61.424,2.417-61.424l0.403-14.5H188.411z"/>
					<path style="fill:#4C4DB6;" d="M170.286,303.2c-1.007,0-23.563-1.813-23.563-1.813l-23.361,95.861l-11.278,42.694l21.549,0.805
						l39.271-109.354L170.286,303.2z"/>
					<g>
						
							<line style="fill:none;stroke:#44283D;stroke-width:0.5;stroke-linecap:round;stroke-miterlimit:10;" x1="164.156" y1="355.836" x2="170.257" y2="333.401"/>
						<path style="fill:none;stroke:#44283D;stroke-width:0.5;stroke-linecap:round;stroke-miterlimit:10;" d="M187.797,377.625
							c0,0-5.607,1.319-8.905,5.937"/>
						<path style="fill:none;stroke:#44283D;stroke-width:0.5;stroke-linecap:round;stroke-miterlimit:10;" d="M188.103,378.415
							c0,0-4.072,3.07-4.605,7.275"/>
					</g>
				</g>
				<g>
					<g>
						<path style="fill:#44283D;" d="M162.612,203.404c-2.097,0.492-8.404,2.598-9.27,8.973c-0.661,4.871,15.507,7.155,15.507,7.155
							c1.187,2.731,4.374,1.712,5.422-0.944c0.741-1.878,1.065-3.203,0.7-5.898C173.698,203.275,164.679,202.919,162.612,203.404z"
							/>
						<g>
							<g>
								<path style="fill:#EFA59E;" d="M152.395,215.595c0.787-4.846,4.789-8.624,9.692-8.879c1.489-0.077,3.036,0.17,4.516,0.967
									c3.511,1.891,4.548,7.322,4.815,11.437l-0.521,5.121l-0.338,21.202c-3.659,13.037-14.002,12.175-13.456-4l0.546-10.582
									C151.441,228.841,151.512,221.036,152.395,215.595z"/>
								<path style="opacity:0.5;fill:#EFA59E;" d="M157.649,230.862c0,0,2.878,1.16,7.073-1.375c0,0-2.488,4.604-7.309,6.083
									L157.649,230.862z"/>
								<g>
									<path style="fill:#EFA59E;" d="M170.636,217.669c-0.071,1.056,0.519,1.955,1.319,2.01c0.8,0.054,1.506-0.758,1.577-1.814
										c0.071-1.056-0.519-1.956-1.318-2.01C171.414,215.801,170.708,216.613,170.636,217.669z"/>
								</g>
							</g>
						</g>
						<g>
							<path style="fill:#44283D;" d="M157.649,230.862c2.408,0.524,4.866-0.503,7.073-1.375
								C162.774,230.9,159.961,231.977,157.649,230.862L157.649,230.862z"/>
						</g>
						<g>
							<path style="fill:#EFA59E;" d="M170.636,217.669c-0.071,1.056,0.519,1.955,1.319,2.01c0.8,0.054,1.506-0.758,1.577-1.814
								c0.071-1.056-0.519-1.956-1.318-2.01C171.414,215.801,170.708,216.613,170.636,217.669z"/>
						</g>
						<path style="fill:#44283D;" d="M170.682,209.69c-1.399-2.656-4.25-4.228-7.244-4.018c-0.029,0.002-0.059,0.004-0.089,0.006
							c-6.519,0.465-9.576,5.772-9.57,5.9c8.114-2.351,11.532-4.486,11.532-4.486s1.303,10.719,5.775,9.079
							C172.451,214.151,171.705,211.632,170.682,209.69z"/>
					</g>
					<g>
						
							<path style="fill:none;stroke:#44283D;stroke-width:0.5;stroke-linecap:round;stroke-linejoin:round;stroke-miterlimit:10;" d="
							M162.168,222.391c0,0-2.183,5.047-7.151,0.766"/>
						
							<path style="fill:none;stroke:#44283D;stroke-width:0.5;stroke-linecap:round;stroke-linejoin:round;stroke-miterlimit:10;" d="
							M158.822,214.146c0,0-0.706,2.943-2.071,4.821c-0.544,0.749,1.696,1.918,1.696,1.918"/>
						
							<path style="fill:none;stroke:#44283D;stroke-width:0.5;stroke-linecap:round;stroke-linejoin:round;stroke-miterlimit:10;" d="
							M161.71,215.911c0,0-0.609,2.687,0.584,3.189c1.193,0.502,2.546-1.972,2.546-1.972"/>
						
							<path style="fill:none;stroke:#44283D;stroke-width:0.5;stroke-linecap:round;stroke-linejoin:round;stroke-miterlimit:10;" d="
							M154.083,214.653c0,0-0.621,2.668,0.324,3.03c0.945,0.363,2.16-2.176,2.16-2.176"/>
					</g>
					<g>
						<g>
							<g>
								<g>
									<path style="fill:#EFA59E;" d="M120.881,282.975c-8.035-6.288-14.851-11.886-14.851-11.886l5.654-7.023l11.466,7.711
										C122.35,275.499,121.599,279.234,120.881,282.975z"/>
									<g>
										<g>
											<path style="fill:#EFA59E;" d="M115.205,266.46c-3.154-2.475-6.886-4.952-9.741-6.255
												c-1.866-0.851-3.607-1.548-3.633-1.194c-0.055,0.765,3.418,3.785,3.418,3.785s-5.358-3.541-4.256-1.77
												c1.102,1.772,4.09,4.065,4.09,4.065s-5.413-2.776-3.994-1.135c1.419,1.641,4.5,3.71,4.5,3.71s-6.178-2.832-3.732-0.501
												c3.638,3.466,3.896,3.871,7.434,6.539L115.205,266.46z"/>
										</g>
									</g>
								</g>
								<g>
									<g>
										<path style="fill:#EFA59E;" d="M198.398,319.936c5.577,8.563,10.569,15.851,10.569,15.851l7.499-5.032l-6.698-12.11
											C205.985,319.119,202.193,319.544,198.398,319.936z"/>
										<g>
											<g>
												<path style="fill:#EFA59E;" d="M214.384,327.034c2.196,3.362,4.343,7.301,5.394,10.262
													c0.688,1.936,1.231,3.734,0.876,3.729c-0.768-0.011-3.48-3.739-3.48-3.739s3.068,5.654,1.396,4.4
													c-1.672-1.254-3.701-4.434-3.701-4.434s2.3,5.643,0.786,4.084c-1.514-1.559-3.311-4.812-3.311-4.812
													s2.289,6.411,0.176,3.768c-3.143-3.931-3.524-4.224-5.878-7.986L214.384,327.034z"/>
											</g>
										</g>
									</g>
									<path style="fill:#EC715B;" d="M193.704,256.342c-3.413-12.099-11.131-17.02-14.485-18.639
										c-1.007-0.486-2.119-0.666-3.229-0.525c-2.642,0.334-8.836,1.437-20.905,5.085c-11.346,3.43-14.471,21.255-16.13,35.479
										c-9.22-5.657-17.241-10.752-17.241-10.752l-9.66,13.529c0,0,21.121,20.28,33.012,23.814l0.249,2.834l42.928-3.444
										l13.116,26.339l14.067-5.733C215.427,324.327,198.129,272.031,193.704,256.342z"/>
									<path style="fill:#EC715B;" d="M136.58,294.559c3.017-8.378,1.207-47.067,18.505-52.296
										c12.068-3.648,18.262-4.752,20.905-5.085c1.11-0.14,2.222,0.039,3.229,0.525c3.354,1.619,11.073,6.541,14.485,18.639
										c4.425,15.689,21.723,67.985,21.723,67.985l-14.067,5.733l-13.116-26.339l-42.928,3.444l-0.97-11.017L136.58,294.559z"/>
									<g>
										<defs>
											<path id="SVGID_00000139975977686605430950000013514834179770770611_" d="M193.704,256.342
												c-3.413-12.099-11.131-17.02-14.485-18.639c-1.007-0.486-2.119-0.666-3.229-0.525c-2.642,0.334-8.836,1.437-20.905,5.085
												c-11.346,3.43-14.471,21.255-16.13,35.479c-9.22-5.657-17.241-10.752-17.241-10.752l-9.66,13.529
												c0,0,21.121,20.28,33.012,23.814l0.249,2.834l42.928-3.444l13.116,26.339l14.067-5.733
												C215.427,324.327,198.129,272.031,193.704,256.342z"/>
										</defs>
										<use xlink:href="#SVGID_00000139975977686605430950000013514834179770770611_"  style="overflow:visible;fill:#FDB852;"/>
										<clipPath id="SVGID_00000146497834459293600890000014361076753135848884_">
											<use xlink:href="#SVGID_00000139975977686605430950000013514834179770770611_"  style="overflow:visible;"/>
										</clipPath>
										<g style="clip-path:url(#SVGID_00000146497834459293600890000014361076753135848884_);">
											<g>
												<path style="fill:#EC715B;" d="M132.851,256.373c1.743,5.169,6.588,8.438,11.841,9.319
													c6.483,1.088,12.71-1.248,18.855-2.984c11.754-3.321,24.307-3.837,36.302-1.523c6.754,1.303,13.338,3.439,19.528,6.442
													c1.214,0.589,2.702,0.331,3.42-0.897c0.642-1.097,0.323-2.829-0.897-3.421c-10.971-5.322-22.993-8.23-35.187-8.509
													c-6.151-0.141-12.327,0.416-18.362,1.613c-2.904,0.576-5.752,1.345-8.586,2.194c-3.022,0.905-6.09,1.911-9.239,2.258
													c-4.689,0.517-11.127-0.7-12.853-5.821C136.65,252.01,131.819,253.311,132.851,256.373L132.851,256.373z"/>
											</g>
										</g>
										<g style="clip-path:url(#SVGID_00000146497834459293600890000014361076753135848884_);">
											<g>
												<path style="fill:#EC715B;" d="M126.098,269.115c2.291,2.281,2.437,5.73,1.708,8.721
													c-0.948,3.892-3.428,7.19-5.592,10.484c-2.232,3.397-4.286,6.986-4.922,11.059c-0.644,4.124,0.055,8.132,2.774,11.39
													c0.866,1.037,2.641,0.894,3.536,0c1.027-1.027,0.868-2.496,0-3.535c-2.184-2.617-1.769-6.47-0.782-9.482
													c1.266-3.864,3.957-7.154,6.101-10.553c2.178-3.452,3.856-7.093,4.211-11.201c0.329-3.799-0.758-7.691-3.499-10.418
													C127.35,263.306,123.813,266.84,126.098,269.115L126.098,269.115z"/>
											</g>
										</g>
										<g style="clip-path:url(#SVGID_00000146497834459293600890000014361076753135848884_);">
											<g>
												<path style="fill:#EC715B;" d="M134.195,313.948c1.397-6.182,5.884-10.856,11.074-14.217
													c6.102-3.951,13.13-6.432,20.158-8.15c15.68-3.834,32.158-3.163,47.82,0.391c9.008,2.044,17.785,4.999,26.314,8.531
													c1.248,0.517,2.749-0.559,3.075-1.746c0.395-1.437-0.493-2.557-1.746-3.075c-15.838-6.558-32.678-11.107-49.884-11.64
													c-8.422-0.261-16.908,0.47-25.136,2.304c-7.615,1.697-15.311,4.307-22.009,8.37
													c-6.708,4.069-12.706,10.022-14.487,17.904C128.666,315.753,133.485,317.091,134.195,313.948L134.195,313.948z"/>
											</g>
										</g>
										<g style="clip-path:url(#SVGID_00000146497834459293600890000014361076753135848884_);">
											<g>
												<path style="fill:#EC715B;" d="M183.621,323.067c2.848-6.895,9.758-11.407,16.717-13.34
													c9.357-2.599,19.302-0.922,28.576,1.193c3.133,0.714,4.47-4.105,1.329-4.821c-8.337-1.901-16.992-3.385-25.551-2.288
													c-7.06,0.905-13.844,3.573-19.191,8.358c-2.964,2.653-5.189,5.905-6.702,9.569c-0.516,1.249,0.558,2.749,1.746,3.075
													C181.982,325.208,183.103,324.32,183.621,323.067L183.621,323.067z"/>
											</g>
										</g>
										<g style="clip-path:url(#SVGID_00000146497834459293600890000014361076753135848884_);">
											<g>
												<path style="fill:#EC715B;" d="M163.507,280.098c13.28-8.164,29.508-8.773,44.546-6.556
													c4.745,0.7,9.449,1.649,14.13,2.689c3.135,0.697,4.474-4.123,1.329-4.821c-16.383-3.641-33.754-6.157-50.145-1.161
													c-4.333,1.321-8.524,3.159-12.384,5.532C158.247,277.462,160.756,281.789,163.507,280.098L163.507,280.098z"/>
											</g>
										</g>
									</g>
								</g>
							</g>
							<path style="fill:none;stroke:#44283D;stroke-width:0.5;stroke-linecap:round;stroke-miterlimit:10;" d="M160.139,269.132
								c-0.133,0.401,1.337,43.114-16.377,34.759"/>
							<path style="fill:none;stroke:#44283D;stroke-width:0.5;stroke-linecap:round;stroke-miterlimit:10;" d="M189.068,267.547
								c0,0,3.51,27.114-0.824,36.176"/>
						</g>
						<g>
							<path style="fill:#EC715B;" d="M176.087,237.095l0.324-0.015l-4.482-4.994c0,0-17.73,6.304-18.715,10.638
								c-0.043,0.188-0.016,0.347,0.041,0.493C154.866,242.931,170.664,240.063,176.087,237.095z"/>
							<path style="fill:none;stroke:#44283D;stroke-width:0.5;stroke-linecap:round;stroke-miterlimit:10;" d="M153.112,243.244
								c0,0,17.258-3.02,22.975-6.148"/>
						</g>
					</g>
				</g>
			</g>
		</g>
		<path style="opacity:0.5;fill:#EFA59E;" d="M165.885,222.758c0,1.587-1.286,2.873-2.873,2.873c-1.587,0-2.873-1.286-2.873-2.873
			c0-1.587,1.286-2.873,2.873-2.873C164.599,219.885,165.885,221.171,165.885,222.758z"/>
	</g>
	<g>
		<defs>
			<rect id="SVGID_00000116931551285103769140000015627021336952854691_" width="500" height="500"/>
		</defs>
		<clipPath id="SVGID_00000118363320702773181840000001520953360589297853_">
			<use xlink:href="#SVGID_00000116931551285103769140000015627021336952854691_"  style="overflow:visible;"/>
		</clipPath>
		<path style="clip-path:url(#SVGID_00000118363320702773181840000001520953360589297853_);fill:#539661;" d="M-33.202,510.645
			h246.12c-6.985-18.558-34.924-29.238-68.352-24.819c-4.055,0.536-7.766,1.527-11.167,2.844c0-0.001,0.003-0.007,0.003-0.007
			c-0.05,0.021-0.098,0.038-0.147,0.059c-0.134,0.053-0.267,0.107-0.4,0.16c-20.267,8.362-35.935-2.302-37.542-3.46
			c-18.404-13.36-34.105-35.541-69.13-30.464C-7.554,459.847-32.981,502.451-33.202,510.645z"/>
		<g style="clip-path:url(#SVGID_00000118363320702773181840000001520953360589297853_);">
			<path style="fill:#539661;" d="M306.391,494.748c2.852-5.07,6.25-9.844,10.094-14.228c3.842,2.336,7.684,4.671,11.526,7.007
				c-1.953-4.286-3.906-8.572-5.859-12.858c6.078-5.721,12.991-10.52,20.466-14.124c4.246,4.053,8.492,8.106,12.737,12.159
				c-0.961-5.369-1.921-10.739-2.882-16.108c2.948-0.938,5.954-1.703,9.012-2.255c27.242-4.909,56.402,6.888,73.985,28.267
				c17.584,21.378,23.637,51.255,17.564,78.261l-156.555,2.278C291.902,540.069,294.854,515.252,306.391,494.748z"/>
		</g>
	</g>
	<g>
		<g>
			<path style="fill:#F3F8FF;" d="M48.305,479.199c-0.076-0.197-0.233-0.593-1.933-1.03c1.69-0.243,1.871-0.59,1.976-0.799
				l0.196-0.535l-0.297-0.371c-0.598-0.745-3.978-0.991-7.939-0.616c3.488-1.87,5.979-3.954,6.073-4.895l-0.012-0.613l-0.42-0.238
				c-0.184-0.107-0.558-0.312-2.118,0.418c1.111-1.239,1.03-1.617,0.977-1.841l-0.192-0.538l-0.468-0.094
				c-0.939-0.187-3.658,1.756-6.408,4.535c1.426-3.624,1.96-6.787,1.425-7.565l-0.404-0.46l-0.474,0.091
				c-0.224,0.042-0.632,0.13-1.318,1.628c0.029-1.612-0.279-1.847-0.466-1.983l-0.507-0.282l-0.416,0.237
				c-0.832,0.473-1.632,3.716-1.905,7.537c-1.247-3.546-2.858-6.371-3.844-6.67c-0.01-0.003-0.02-0.004-0.029-0.007l-0.595-0.084
				l-0.299,0.378c-0.137,0.173-0.382,0.495,0.085,2.073c-1.059-1.257-1.46-1.229-1.68-1.206l-0.579,0.127l-0.156,0.456
				c-0.329,0.956,1.154,3.883,3.453,6.906c-3.332-1.866-6.475-2.973-7.333-2.541l-0.492,0.32l0.023,0.479
				c0.011,0.232,0.037,0.619,1.398,1.479c-1.624-0.247-1.92,0.044-2.078,0.208l-0.356,0.488l0.182,0.448
				c0.266,0.652,1.971,1.539,4.406,2.277c0.827,0.251,1.758,0.472,2.725,0.674c-3.835,0.774-6.96,1.986-7.32,2.879l-0.162,0.553
				l0.328,0.346c0.067,0.072,0.154,0.163,0.358,0.225c0.275,0.083,0.772,0.111,1.715-0.033c-1.46,0.903-1.495,1.329-1.508,1.54
				l0.048,0.606l0.429,0.222c0.038,0.021,0.079,0.036,0.125,0.05c0.992,0.301,3.973-0.639,7.283-2.447
				c-2.475,3.107-4.113,6.07-3.816,6.976l0.23,0.527l0.473,0.053c0.232,0.026,0.619,0.064,1.742-1.214
				c-0.56,1.659-0.314,2.009-0.19,2.18l0.417,0.432l0.471-0.101c0.997-0.212,2.764-3.068,4.209-6.713
				c0.049,4.011,0.66,7.371,1.474,7.893l0.517,0.261l0.4-0.257c0.184-0.119,0.52-0.337,0.584-2.09
				c0.56,1.519,0.946,1.748,1.176,1.817c0.02,0.006,0.039,0.01,0.057,0.016l0.584,0.076l0.302-0.371
				c0.629-0.773,0.181-4.146-1.013-7.952c2.256,2.73,4.545,4.784,5.723,5.141c0.152,0.046,0.285,0.064,0.396,0.052l0.579-0.127
				l0.149-0.455c0.071-0.216,0.195-0.613-0.862-2.029c0.606,0.363,1.034,0.558,1.333,0.649c0.441,0.134,0.619,0.055,0.738,0
				l0.494-0.296l0.003-0.475c0.006-0.97-2.474-3.314-5.808-5.541c3.852,0.78,7.214,0.858,7.933,0.141l0.376-0.474L48.305,479.199z"
				/>
			<g>
				<g>
					<path style="fill:#90B4D9;" d="M36.665,476.097c1.313-2.869,4.125-5.103,7.219-5.726
						C41.019,471.7,38.61,473.607,36.665,476.097L36.665,476.097z"/>
				</g>
				<g>
					<path style="fill:#90B4D9;" d="M46.652,478.162c-3.502,0.774-7.332,0.303-10.539-1.305
						C39.584,477.792,43.057,478.225,46.652,478.162L46.652,478.162z"/>
				</g>
				<g>
					<path style="fill:#90B4D9;" d="M43.604,485.635c-2.897-0.586-5.552-2.607-6.88-5.249
						C38.667,482.62,40.933,484.353,43.604,485.635L43.604,485.635z"/>
				</g>
				<g>
					<path style="fill:#90B4D9;" d="M36.308,489.652c-0.424-2.892-0.834-5.872-1.203-8.766
						C36.165,483.663,36.579,486.692,36.308,489.652L36.308,489.652z"/>
				</g>
				<g>
					<path style="fill:#90B4D9;" d="M28.364,488.164c0.618-2.905,2.514-5.587,5.051-7.131
						C31.325,483.154,29.669,485.488,28.364,488.164L28.364,488.164z"/>
				</g>
				<g>
					<path style="fill:#90B4D9;" d="M23.215,481.561c3.971-2.115,8.467-3.313,12.966-3.448
						C31.767,478.952,27.469,480.092,23.215,481.561L23.215,481.561z"/>
				</g>
				<g>
					<path style="fill:#90B4D9;" d="M23.708,473.365c3.225,1.93,6.841,3.055,10.646,2.673
						C30.635,477.155,26.545,475.914,23.708,473.365L23.708,473.365z"/>
				</g>
				<g>
					<path style="fill:#90B4D9;" d="M28.955,467.578c2.326,1.896,3.902,4.788,4.224,7.773
						C32.146,472.525,30.767,469.98,28.955,467.578L28.955,467.578z"/>
				</g>
				<g>
					<path style="fill:#90B4D9;" d="M36.933,466.351c0.334,2.956-0.584,6.102-2.462,8.411
						C35.736,472.06,36.544,469.309,36.933,466.351L36.933,466.351z"/>
				</g>
			</g>
			<path style="fill:#90B4D9;" d="M43.526,476.149c-0.084-0.111-0.257-0.332-1.414-0.296c1.025-0.465,1.075-0.718,1.103-0.87
				l0.026-0.375l-0.257-0.18c-0.515-0.361-2.701,0.105-5.139,1.073c1.863-1.826,3.056-3.604,2.942-4.217l-0.121-0.386l-0.31-0.073
				c-0.136-0.034-0.411-0.095-1.264,0.655c0.475-0.989,0.354-1.213,0.279-1.345l-0.221-0.305l-0.313,0.027
				c-0.629,0.055-1.992,1.785-3.221,4.05c0.235-2.556-0.009-4.657-0.491-5.051l-0.341-0.217l-0.284,0.145
				c-0.134,0.068-0.376,0.199-0.535,1.273c-0.278-1.026-0.517-1.118-0.66-1.169l-0.373-0.085l-0.22,0.227
				c-0.439,0.452-0.349,2.653,0.182,5.122c-1.442-2.014-2.982-3.507-3.661-3.514c-0.007,0-0.013,0.001-0.02,0.001l-0.392,0.057
				l-0.12,0.294c-0.055,0.135-0.151,0.384,0.436,1.296c-0.902-0.601-1.151-0.509-1.286-0.454l-0.343,0.187l-0.015,0.318
				c-0.032,0.665,1.446,2.245,3.458,3.735c-2.453-0.567-4.646-0.69-5.109-0.258l-0.253,0.293l0.103,0.299
				c0.05,0.145,0.137,0.385,1.157,0.679c-1.074,0.143-1.207,0.382-1.277,0.514l-0.135,0.374l0.198,0.25
				c0.289,0.364,1.531,0.611,3.209,0.63c0.569,0.006,1.2-0.025,1.849-0.075c-2.285,1.196-4.039,2.539-4.103,3.171l-0.001,0.38
				l0.272,0.159c0.056,0.033,0.128,0.075,0.268,0.077c0.19,0.002,0.509-0.072,1.08-0.337c-0.758,0.841-0.701,1.116-0.671,1.252
				l0.142,0.375l0.312,0.062c0.028,0.006,0.057,0.008,0.089,0.009c0.683,0.008,2.397-1.137,4.159-2.89
				c-0.994,2.423-1.485,4.6-1.131,5.119l0.243,0.291l0.309-0.054c0.151-0.026,0.404-0.074,0.879-1.089
				c-0.049,1.154,0.171,1.33,0.281,1.415l0.344,0.197l0.279-0.15c0.592-0.318,1.185-2.451,1.428-5.024
				c0.77,2.53,1.776,4.544,2.387,4.725l0.376,0.07l0.206-0.236c0.095-0.109,0.267-0.309-0.015-1.43
				c0.634,0.858,0.921,0.932,1.079,0.934c0.014,0,0.027-0.001,0.039-0.001l0.384-0.06l0.123-0.291
				c0.256-0.605-0.649-2.658-2.106-4.847c1.931,1.313,3.758,2.191,4.57,2.2c0.105,0.001,0.192-0.012,0.261-0.04l0.343-0.187
				l0.011-0.316c0.005-0.15,0.011-0.424-0.919-1.125c0.451,0.118,0.757,0.163,0.963,0.165c0.304,0.004,0.402-0.079,0.467-0.136
				l0.258-0.279l-0.086-0.302c-0.175-0.615-2.177-1.642-4.697-2.437c2.582-0.216,4.724-0.785,5.048-1.372l0.151-0.37L43.526,476.149
				z"/>
			<path style="fill:#F3F8FF;" d="M34.868,475.148c-1.061-0.092-2.147,0.552-2.575,1.527c-0.428,0.975-0.168,2.21,0.618,2.929
				c0.786,0.719,2.039,0.869,2.972,0.356c0.933-0.513,1.478-1.651,1.292-2.7c-0.186-1.049-1.089-1.931-2.142-2.091"/>
		</g>
		<g>
			<path style="fill:#F3F8FF;" d="M229.983,377.414c-0.056-0.146-0.172-0.438-1.429-0.761c1.249-0.18,1.383-0.436,1.46-0.591
				l0.145-0.395l-0.22-0.275c-0.442-0.551-2.94-0.732-5.868-0.455c2.578-1.382,4.419-2.923,4.489-3.618l-0.009-0.453l-0.311-0.176
				c-0.136-0.079-0.413-0.231-1.565,0.309c0.821-0.916,0.761-1.195,0.722-1.361l-0.142-0.397l-0.346-0.069
				c-0.694-0.138-2.704,1.298-4.736,3.352c1.054-2.679,1.449-5.017,1.054-5.592l-0.299-0.34l-0.351,0.067
				c-0.166,0.031-0.467,0.096-0.975,1.203c0.021-1.192-0.206-1.365-0.344-1.465l-0.374-0.209l-0.307,0.175
				c-0.615,0.349-1.207,2.747-1.408,5.571c-0.922-2.621-2.112-4.709-2.841-4.93c-0.007-0.002-0.014-0.003-0.021-0.005l-0.44-0.062
				l-0.221,0.279c-0.101,0.128-0.282,0.366,0.063,1.532c-0.783-0.929-1.079-0.908-1.242-0.892l-0.428,0.094l-0.116,0.337
				c-0.243,0.706,0.853,2.87,2.553,5.104c-2.463-1.379-4.786-2.198-5.42-1.878l-0.364,0.236l0.017,0.354
				c0.008,0.171,0.027,0.457,1.033,1.094c-1.201-0.183-1.419,0.033-1.536,0.154l-0.263,0.361l0.135,0.331
				c0.197,0.482,1.457,1.137,3.257,1.683c0.611,0.185,1.299,0.349,2.014,0.498c-2.835,0.572-5.144,1.468-5.411,2.128l-0.12,0.409
				l0.243,0.256c0.05,0.053,0.114,0.121,0.265,0.166c0.204,0.062,0.571,0.082,1.268-0.024c-1.079,0.668-1.105,0.982-1.115,1.138
				l0.035,0.448l0.317,0.164c0.028,0.015,0.058,0.027,0.093,0.037c0.733,0.222,2.936-0.473,5.383-1.809
				c-1.829,2.297-3.04,4.487-2.821,5.157l0.17,0.389l0.35,0.039c0.171,0.019,0.458,0.047,1.288-0.897
				c-0.414,1.227-0.232,1.485-0.141,1.611l0.309,0.319l0.348-0.074c0.737-0.157,2.043-2.268,3.111-4.962
				c0.036,2.965,0.488,5.449,1.089,5.835l0.382,0.193l0.296-0.19c0.136-0.088,0.384-0.249,0.432-1.544
				c0.414,1.123,0.7,1.292,0.869,1.343c0.015,0.004,0.029,0.008,0.042,0.012l0.432,0.056l0.223-0.274
				c0.465-0.571,0.134-3.065-0.749-5.878c1.668,2.018,3.359,3.536,4.23,3.8c0.112,0.034,0.21,0.047,0.293,0.038l0.428-0.094
				l0.11-0.336c0.052-0.16,0.144-0.454-0.637-1.499c0.448,0.268,0.764,0.412,0.985,0.479c0.326,0.099,0.458,0.04,0.545,0
				l0.366-0.219l0.002-0.352c0.005-0.717-1.829-2.449-4.293-4.095c2.847,0.577,5.332,0.634,5.864,0.104l0.278-0.351L229.983,377.414
				z"/>
			<g>
				<g>
					<path style="fill:#90B4D9;" d="M221.379,375.121c0.972-2.117,3.053-3.771,5.336-4.233
						C224.594,371.869,222.815,373.277,221.379,375.121L221.379,375.121z"/>
				</g>
				<g>
					<path style="fill:#90B4D9;" d="M228.761,376.648c-2.587,0.569-5.421,0.22-7.79-0.965
						C223.537,376.378,226.102,376.698,228.761,376.648L228.761,376.648z"/>
				</g>
				<g>
					<path style="fill:#90B4D9;" d="M226.507,382.171c-2.138-0.435-4.103-1.931-5.085-3.88
						C222.857,379.946,224.531,381.226,226.507,382.171L226.507,382.171z"/>
				</g>
				<g>
					<path style="fill:#90B4D9;" d="M221.115,385.141c-0.315-2.178-0.608-4.297-0.889-6.479
						C221.007,380.712,221.312,382.955,221.115,385.141L221.115,385.141z"/>
				</g>
				<g>
					<path style="fill:#90B4D9;" d="M215.243,384.041c0.459-2.144,1.862-4.129,3.733-5.271
						C217.429,380.336,216.205,382.06,215.243,384.041L215.243,384.041z"/>
				</g>
				<g>
					<path style="fill:#90B4D9;" d="M211.437,379.16c2.935-1.559,6.262-2.447,9.584-2.549
						C217.748,377.231,214.585,378.07,211.437,379.16L211.437,379.16z"/>
				</g>
				<g>
					<path style="fill:#90B4D9;" d="M211.801,373.102c2.388,1.431,5.051,2.26,7.869,1.976
						C216.936,375.902,213.893,374.98,211.801,373.102L211.801,373.102z"/>
				</g>
				<g>
					<path style="fill:#90B4D9;" d="M215.679,368.825c1.716,1.401,2.882,3.542,3.122,5.745
						C218.041,372.478,217.023,370.599,215.679,368.825L215.679,368.825z"/>
				</g>
				<g>
					<path style="fill:#90B4D9;" d="M221.577,367.918c0.244,2.183-0.435,4.511-1.82,6.217
						C220.695,372.138,221.293,370.105,221.577,367.918L221.577,367.918z"/>
				</g>
			</g>
			<path style="fill:#90B4D9;" d="M226.45,375.16c-0.062-0.082-0.19-0.246-1.045-0.219c0.757-0.344,0.795-0.531,0.815-0.643
				l0.019-0.277l-0.19-0.133c-0.381-0.267-1.996,0.078-3.798,0.793c1.377-1.349,2.259-2.664,2.175-3.117l-0.089-0.285l-0.229-0.054
				c-0.101-0.025-0.304-0.07-0.934,0.484c0.351-0.731,0.262-0.897,0.207-0.994l-0.163-0.225l-0.232,0.02
				c-0.465,0.04-1.472,1.32-2.381,2.994c0.174-1.89-0.007-3.443-0.363-3.734l-0.252-0.16l-0.21,0.107
				c-0.099,0.05-0.278,0.147-0.395,0.941c-0.206-0.758-0.382-0.826-0.488-0.864l-0.275-0.063l-0.162,0.168
				c-0.325,0.335-0.258,1.961,0.135,3.786c-1.066-1.489-2.204-2.592-2.706-2.598c-0.005,0-0.01,0.001-0.015,0l-0.29,0.042
				l-0.089,0.218c-0.04,0.1-0.111,0.284,0.322,0.958c-0.667-0.444-0.851-0.376-0.95-0.335l-0.254,0.138l-0.011,0.235
				c-0.024,0.492,1.068,1.66,2.556,2.761c-1.813-0.419-3.434-0.51-3.777-0.191l-0.187,0.217l0.076,0.221
				c0.037,0.107,0.101,0.284,0.855,0.502c-0.793,0.105-0.892,0.282-0.944,0.38l-0.1,0.277l0.146,0.185
				c0.214,0.269,1.132,0.451,2.372,0.465c0.421,0.005,0.887-0.018,1.367-0.056c-1.689,0.884-2.986,1.877-3.033,2.344l-0.001,0.281
				l0.201,0.117c0.041,0.025,0.094,0.055,0.198,0.056c0.14,0.002,0.377-0.053,0.798-0.249c-0.56,0.621-0.518,0.825-0.496,0.926
				l0.105,0.277l0.231,0.046c0.02,0.004,0.042,0.006,0.066,0.006c0.505,0.006,1.771-0.84,3.074-2.136
				c-0.735,1.791-1.098,3.4-0.836,3.784l0.179,0.215l0.229-0.04c0.112-0.019,0.298-0.055,0.65-0.805
				c-0.036,0.853,0.126,0.983,0.208,1.046l0.254,0.145l0.206-0.111c0.437-0.235,0.876-1.812,1.055-3.714
				c0.569,1.87,1.312,3.359,1.764,3.493l0.278,0.052l0.152-0.175c0.07-0.08,0.197-0.228-0.011-1.057
				c0.469,0.634,0.681,0.689,0.798,0.69c0.01,0,0.02-0.001,0.029,0l0.284-0.044l0.091-0.215c0.189-0.447-0.48-1.965-1.557-3.583
				c1.427,0.97,2.778,1.619,3.378,1.626c0.077,0.001,0.142-0.009,0.193-0.03l0.254-0.138l0.008-0.233
				c0.004-0.111,0.008-0.314-0.679-0.832c0.333,0.087,0.56,0.12,0.712,0.122c0.225,0.003,0.297-0.059,0.345-0.101l0.191-0.206
				l-0.063-0.223c-0.129-0.455-1.609-1.214-3.472-1.802c1.908-0.159,3.492-0.581,3.731-1.014l0.111-0.273L226.45,375.16z"/>
			<path style="fill:#F3F8FF;" d="M220.051,374.42c-0.784-0.068-1.587,0.408-1.903,1.129c-0.317,0.721-0.124,1.634,0.457,2.165
				c0.581,0.531,1.507,0.642,2.197,0.263c0.69-0.379,1.093-1.221,0.955-1.996c-0.137-0.775-0.805-1.427-1.583-1.546"/>
		</g>
		<g>
			<path style="fill:#F3F8FF;" d="M403.043,480.977c-0.067-0.175-0.207-0.527-1.72-0.916c1.503-0.216,1.664-0.525,1.757-0.711
				l0.174-0.476l-0.264-0.33c-0.531-0.662-3.538-0.881-7.06-0.547c3.102-1.663,5.317-3.517,5.401-4.353l-0.011-0.545l-0.374-0.212
				c-0.163-0.095-0.497-0.277-1.883,0.372c0.988-1.102,0.916-1.438,0.869-1.637l-0.171-0.478l-0.416-0.083
				c-0.835-0.166-3.253,1.562-5.698,4.033c1.268-3.223,1.743-6.036,1.267-6.728l-0.359-0.409l-0.422,0.081
				c-0.199,0.038-0.562,0.116-1.172,1.448c0.026-1.434-0.248-1.642-0.414-1.763l-0.45-0.251l-0.37,0.211
				c-0.74,0.42-1.452,3.305-1.694,6.703c-1.109-3.153-2.541-5.666-3.418-5.932c-0.009-0.003-0.018-0.004-0.026-0.006l-0.529-0.074
				l-0.266,0.336c-0.122,0.154-0.34,0.44,0.076,1.843c-0.942-1.118-1.299-1.093-1.494-1.073l-0.515,0.113l-0.139,0.405
				c-0.293,0.85,1.026,3.453,3.071,6.141c-2.963-1.66-5.759-2.644-6.521-2.26l-0.438,0.284l0.02,0.426
				c0.01,0.206,0.033,0.55,1.243,1.316c-1.445-0.22-1.707,0.039-1.848,0.185l-0.316,0.434l0.162,0.399
				c0.237,0.58,1.753,1.368,3.919,2.025c0.735,0.223,1.563,0.42,2.423,0.6c-3.411,0.688-6.189,1.767-6.509,2.56l-0.144,0.491
				l0.292,0.308c0.06,0.064,0.137,0.145,0.319,0.2c0.245,0.074,0.687,0.098,1.525-0.029c-1.299,0.803-1.329,1.182-1.341,1.369
				l0.042,0.539l0.381,0.198c0.034,0.018,0.07,0.032,0.112,0.045c0.882,0.267,3.533-0.569,6.476-2.176
				c-2.201,2.763-3.658,5.398-3.394,6.204l0.205,0.468l0.421,0.047c0.206,0.023,0.551,0.056,1.549-1.079
				c-0.498,1.476-0.28,1.787-0.169,1.939l0.371,0.384l0.418-0.09c0.886-0.189,2.458-2.728,3.743-5.97
				c0.043,3.567,0.587,6.555,1.31,7.02l0.46,0.232l0.356-0.228c0.164-0.105,0.462-0.299,0.519-1.858
				c0.498,1.351,0.842,1.554,1.046,1.616c0.018,0.005,0.035,0.009,0.051,0.014l0.519,0.068l0.268-0.33
				c0.559-0.687,0.161-3.687-0.901-7.072c2.007,2.428,4.042,4.254,5.09,4.572c0.135,0.041,0.253,0.057,0.352,0.046l0.515-0.113
				l0.133-0.405c0.063-0.192,0.174-0.546-0.766-1.804c0.539,0.323,0.919,0.496,1.186,0.577c0.392,0.119,0.551,0.049,0.656,0
				l0.44-0.263l0.002-0.423c0.006-0.863-2.201-2.947-5.165-4.927c3.426,0.694,6.415,0.763,7.055,0.125l0.334-0.422L403.043,480.977z
				"/>
			<g>
				<g>
					<path style="fill:#90B4D9;" d="M392.691,478.218c1.169-2.547,3.673-4.536,6.42-5.092
						C396.56,474.306,394.42,475.999,392.691,478.218L392.691,478.218z"/>
				</g>
				<g>
					<path style="fill:#90B4D9;" d="M401.573,480.055c-3.112,0.685-6.522,0.265-9.372-1.161
						C395.288,479.73,398.375,480.115,401.573,480.055L401.573,480.055z"/>
				</g>
				<g>
					<path style="fill:#90B4D9;" d="M398.862,486.7c-2.572-0.523-4.937-2.324-6.118-4.668
						C394.47,484.023,396.484,485.563,398.862,486.7L398.862,486.7z"/>
				</g>
				<g>
					<path style="fill:#90B4D9;" d="M392.374,490.272c-0.379-2.62-0.732-5.169-1.07-7.795
						C392.244,484.945,392.611,487.643,392.374,490.272L392.374,490.272z"/>
				</g>
				<g>
					<path style="fill:#90B4D9;" d="M385.309,488.95c0.552-2.579,2.24-4.967,4.491-6.342
						C387.939,484.492,386.467,486.566,385.309,488.95L385.309,488.95z"/>
				</g>
				<g>
					<path style="fill:#90B4D9;" d="M380.731,483.077c3.531-1.876,7.534-2.944,11.531-3.066
						C388.324,480.756,384.518,481.765,380.731,483.077L380.731,483.077z"/>
				</g>
				<g>
					<path style="fill:#90B4D9;" d="M381.169,475.788c2.873,1.721,6.076,2.72,9.467,2.378
						C387.346,479.158,383.686,478.048,381.169,475.788L381.169,475.788z"/>
				</g>
				<g>
					<path style="fill:#90B4D9;" d="M385.835,470.643c2.064,1.686,3.467,4.262,3.756,6.912
						C388.676,475.039,387.451,472.777,385.835,470.643L385.835,470.643z"/>
				</g>
				<g>
					<path style="fill:#90B4D9;" d="M392.93,469.551c0.293,2.626-0.524,5.427-2.19,7.479
						C391.869,474.629,392.588,472.184,392.93,469.551L392.93,469.551z"/>
				</g>
			</g>
			<path style="fill:#90B4D9;" d="M398.793,478.265c-0.075-0.098-0.228-0.295-1.257-0.263c0.911-0.414,0.956-0.638,0.981-0.773
				l0.023-0.333l-0.228-0.16c-0.458-0.321-2.401,0.094-4.57,0.954c1.657-1.624,2.718-3.205,2.617-3.75l-0.107-0.343l-0.275-0.065
				c-0.121-0.03-0.365-0.084-1.124,0.582c0.422-0.879,0.315-1.079,0.249-1.196l-0.196-0.271l-0.279,0.024
				c-0.559,0.049-1.772,1.588-2.864,3.602c0.209-2.273-0.008-4.142-0.437-4.492l-0.303-0.193l-0.252,0.129
				c-0.119,0.061-0.334,0.177-0.475,1.132c-0.248-0.912-0.46-0.994-0.587-1.04l-0.331-0.076l-0.195,0.202
				c-0.391,0.402-0.31,2.359,0.162,4.555c-1.283-1.792-2.652-3.118-3.256-3.125c-0.006,0-0.012,0.001-0.017,0.001l-0.349,0.05
				l-0.107,0.262c-0.049,0.12-0.134,0.341,0.387,1.153c-0.802-0.534-1.023-0.452-1.143-0.404l-0.305,0.166l-0.013,0.283
				c-0.029,0.592,1.285,1.997,3.075,3.321c-2.181-0.505-4.132-0.613-4.544-0.229l-0.225,0.26l0.091,0.266
				c0.044,0.129,0.122,0.342,1.029,0.604c-0.955,0.127-1.074,0.339-1.136,0.457l-0.121,0.333l0.176,0.223
				c0.257,0.324,1.362,0.543,2.853,0.56c0.506,0.006,1.067-0.022,1.644-0.067c-2.032,1.064-3.592,2.258-3.649,2.82l-0.001,0.338
				l0.242,0.141c0.05,0.029,0.113,0.067,0.238,0.068c0.169,0.002,0.453-0.064,0.96-0.299c-0.674,0.748-0.624,0.993-0.596,1.114
				l0.126,0.333l0.278,0.055c0.025,0.005,0.05,0.007,0.079,0.008c0.607,0.007,2.131-1.011,3.699-2.57
				c-0.884,2.155-1.321,4.091-1.005,4.552l0.216,0.259l0.275-0.048c0.134-0.023,0.359-0.066,0.782-0.968
				c-0.043,1.026,0.152,1.182,0.25,1.258l0.306,0.175l0.248-0.134c0.526-0.283,1.054-2.18,1.27-4.468
				c0.685,2.25,1.579,4.041,2.122,4.202l0.334,0.062l0.183-0.21c0.084-0.097,0.237-0.274-0.013-1.272
				c0.564,0.763,0.819,0.829,0.96,0.83c0.012,0,0.024-0.001,0.035,0l0.341-0.053l0.109-0.258c0.227-0.538-0.578-2.364-1.873-4.311
				c1.717,1.167,3.342,1.948,4.064,1.956c0.093,0.001,0.171-0.011,0.232-0.035l0.305-0.166l0.009-0.281
				c0.005-0.133,0.01-0.378-0.817-1.001c0.401,0.105,0.673,0.145,0.857,0.147c0.27,0.003,0.358-0.071,0.416-0.121l0.23-0.248
				l-0.076-0.268c-0.155-0.547-1.936-1.46-4.177-2.168c2.296-0.192,4.201-0.699,4.489-1.22l0.134-0.329L398.793,478.265z"/>
			<path style="fill:#F3F8FF;" d="M391.094,477.374c-0.944-0.082-1.909,0.491-2.29,1.358c-0.381,0.867-0.149,1.965,0.55,2.605
				c0.699,0.639,1.813,0.773,2.643,0.316c0.83-0.456,1.315-1.469,1.149-2.401c-0.165-0.933-0.968-1.717-1.905-1.86"/>
		</g>
	</g>
</g>
</svg>
